<svg width="110" height="110" viewBox="0 0 110 110" fill="none" xmlns="http://www.w3.org/2000/svg">
<path d="M13.8098 87.0895C13.0888 86.2529 13.1822 84.9903 14.0187 84.2692L14.0363 84.2546L16.7658 81.4997C18.6364 79.6121 20.1557 78.19 21.298 77.2839L24.4357 74.7956C25.5133 73.9409 26.6175 73.119 27.7482 72.3298L31.0412 70.031C32.0038 69.359 32.8741 68.5777 33.6535 67.6833L36.3107 64.6325C37.2473 63.5577 38.2394 62.5449 39.2863 61.5944L42.2531 58.902C43.2568 57.9908 44.2734 57.0953 45.3029 56.2165L48.3449 53.6198C49.5032 52.6311 50.7943 51.81 52.2101 51.156L55.9787 49.4157C56.9077 48.9865 57.6458 48.3622 58.2228 47.5192L60.5656 44.0974C61.4679 42.7794 62.5492 41.6476 63.8078 40.7155L67.0275 38.3308C68.1798 37.4774 69.3984 36.7054 70.6818 36.0153L74.2844 34.0798C75.2049 33.5849 75.9631 32.9086 76.5754 32.031L78.9445 28.6354C79.9416 27.206 81.2515 26.1211 82.843 25.404L86.635 23.695C87.1892 23.4453 87.5459 23.2462 87.7541 23.1052L87.8264 22.8796L88.1271 21.7829L88.2912 21.1823L88.7658 20.7819L88.843 20.7175C89.6873 20.0053 90.9491 20.1124 91.6613 20.9567C92.2104 21.608 92.27 22.5065 91.882 23.2106L91.6594 24.0261L91.6457 24.069L91.4514 24.6735C91.1717 25.5411 90.4767 26.0842 90.0715 26.3669C89.5781 26.7111 88.9623 27.0344 88.2785 27.3425L84.4865 29.0505C83.5503 29.4723 82.8067 30.0893 82.2248 30.9235L79.8566 34.319C78.89 35.7049 77.6583 36.8063 76.1779 37.6022L72.5764 39.5388C71.4588 40.1396 70.4031 40.809 69.4084 41.5456L66.1877 43.9304C65.2993 44.5883 64.5261 45.3935 63.8664 46.3571L61.5236 49.779C60.5387 51.2177 59.2387 52.3151 57.6555 53.0466L53.8879 54.7878C52.7914 55.2944 51.8114 55.9193 50.9416 56.6618L47.8996 59.2585C46.9011 60.1108 45.9151 60.9792 44.9416 61.863L41.9758 64.5563C41.0453 65.401 40.1616 66.3019 39.3264 67.2604L36.6691 70.3102C35.6767 71.4491 34.5627 72.4509 33.3303 73.3112L30.0383 75.6091C28.9741 76.3519 27.9347 77.1254 26.9211 77.9294L23.7844 80.4186C22.8353 81.1715 21.451 82.454 19.6066 84.3151L16.8205 87.1267L16.7658 87.1823L16.7053 87.2341L16.6301 87.2985C15.7934 88.0195 14.5308 87.926 13.8098 87.0895Z" fill="#584F27"/>
<path d="M5.48344 46.1412C4.41636 45.8558 3.78309 44.759 4.0684 43.6919C4.35383 42.625 5.44965 41.9916 6.51665 42.2769L6.52837 42.2808L10.3457 42.981C12.9549 43.4602 14.9798 43.9085 16.3682 44.3306L20.1973 45.4947C21.4685 45.8811 22.7409 46.2629 24.0147 46.6392L27.8516 47.773C29.2651 48.1906 30.6309 48.7545 31.9473 49.4624L35.5401 51.3951C36.6334 51.9831 37.7561 52.4621 38.9073 52.8335L42.7129 54.0611C43.8984 54.4436 45.1084 54.7493 46.3438 54.9771L50.3038 55.7066C51.6812 55.9605 53.0414 56.2736 54.3838 56.646L58.2403 57.7163C59.4876 58.0624 60.7471 58.3713 62.0176 58.6441L65.9444 59.4878C67.3835 59.7969 68.78 60.2463 70.1319 60.8355L73.8233 62.4449C74.863 62.898 75.9542 63.1846 77.1045 63.3042L81.1612 63.7261C82.7275 63.889 84.2269 64.2966 85.6495 64.9488L89.3165 66.6294C90.4382 67.1437 91.5885 67.5592 92.7686 67.8765L96.6348 68.9156C97.9982 69.2821 99.281 69.713 100.48 70.2095L103.81 71.5894C103.885 71.6206 103.958 71.6504 104.027 71.6792L105.343 72.0865C105.903 72.2603 106.329 72.6587 106.56 73.1509L106.954 73.6451L106.64 74.6548L106.63 74.688C106.261 75.8743 105.147 76.0519 105.035 76.0699C104.766 76.1131 104.552 76.0903 104.491 76.0835C104.333 76.066 104.209 76.0325 104.177 76.024C104.083 75.999 103.998 75.9697 103.952 75.9536C103.845 75.916 103.71 75.8649 103.565 75.8081C103.268 75.6915 102.837 75.5156 102.279 75.2847L98.9483 73.9048C97.9264 73.4815 96.8097 73.1052 95.5958 72.7788L91.7295 71.7398C90.3326 71.3642 88.9722 70.8726 87.6495 70.2661L83.9825 68.5845C82.9604 68.1159 81.8847 67.8229 80.7471 67.7046L76.6915 67.2827C75.138 67.1212 73.6466 66.7311 72.2256 66.1119L68.5342 64.5025C67.4257 64.0193 66.2828 63.652 65.1045 63.399L61.1778 62.5552C59.8305 62.2659 58.4945 61.938 57.1709 61.5708L53.3145 60.5005C52.0863 60.1598 50.8405 59.8729 49.5782 59.6402L45.6182 58.9107C44.2138 58.6517 42.8358 58.3038 41.4844 57.8677L37.6788 56.6402C36.2928 56.193 34.9476 55.6178 33.6456 54.9175L30.0528 52.9849C28.974 52.4047 27.8631 51.947 26.7188 51.6089L22.8819 50.4751C21.5979 50.0958 20.3146 49.7113 19.0332 49.3218L15.2041 48.1578C14.04 47.8039 12.1969 47.3883 9.62309 46.9156L5.7354 46.2017L5.65727 46.187L5.58012 46.1665L5.48344 46.1412Z" fill="#584F27"/>
<path d="M8.6905 63.0772C8.5298 61.9844 9.28522 60.9684 10.378 60.8077L10.4766 60.793L10.5704 60.7794L14.6202 60.5694C17.235 60.4342 19.0995 60.2458 20.2755 60.0206L24.2227 59.2647C25.3368 59.0513 26.3998 58.6726 27.418 58.126L31.002 56.2022C32.4363 55.4323 33.9751 54.9743 35.6016 54.8301L39.6798 54.4688C40.8061 54.369 41.8807 54.0806 42.9132 53.5997L46.6397 51.8633C48.1285 51.1697 49.6951 50.7996 51.3223 50.7647L55.3555 50.6788C56.7201 50.6495 58.0872 50.6407 59.4561 50.6524L63.503 50.6866C64.7398 50.6972 65.9615 50.6051 67.169 50.4092L71.13 49.7667C72.28 49.5801 73.4086 49.246 74.5186 48.7608L78.2969 47.1094C79.8631 46.4249 81.5154 46.1545 83.2227 46.2989L87.3575 46.6485C87.9726 46.7005 88.4164 46.6969 88.7178 46.6651C88.8814 46.6479 88.9679 46.6261 88.9991 46.6172L89.6651 46.2003L91.0753 45.2735L91.4161 45.0489L91.8175 44.9766L91.9161 44.9581C93.0027 44.7612 94.0431 45.4828 94.2403 46.5694C94.4126 47.5197 93.8829 48.4346 93.0206 48.7813L91.8634 49.5421L91.8448 49.5547L91.8262 49.5665L91.0723 50.0391C90.4545 50.4262 89.7502 50.579 89.1378 50.6436C88.4988 50.711 87.7834 50.6984 87.0206 50.6338L82.8858 50.2842C81.837 50.1955 80.8512 50.3581 79.8985 50.7745L76.1202 52.4258C74.7114 53.0415 73.2607 53.4732 71.7706 53.7149L67.8096 54.3575C66.3771 54.5898 64.9297 54.6991 63.4688 54.6866L59.4219 54.6524C58.0929 54.641 56.766 54.6494 55.4415 54.6778L51.4083 54.7637C50.3464 54.7865 49.325 55.0254 48.3292 55.4893L44.6026 57.2256C43.1507 57.902 41.6238 58.3122 40.0323 58.4532L35.9551 58.8145C34.8637 58.9112 33.8484 59.2141 32.8936 59.7266L29.3096 61.6505C27.9388 62.3864 26.4917 62.9018 24.9747 63.1924L21.0284 63.9493C19.5732 64.228 17.4849 64.4271 14.8262 64.5645L10.9669 64.7628L10.96 64.7647C9.86724 64.9254 8.85123 64.17 8.6905 63.0772Z" fill="#584F27"/>
<path d="M44.221 28.2852C44.036 27.1964 44.7689 26.1637 45.8577 25.9785C46.8941 25.8024 47.877 26.4583 48.1292 27.4609L48.7053 28.8604L48.7102 28.8711L48.7141 28.8828L49.0461 29.7178C49.3819 30.5639 49.5688 31.7594 49.6917 33.1055L50.0569 37.0977C50.1728 38.3671 50.347 39.6271 50.5794 40.8779L51.3098 44.8125C51.5449 46.0776 51.8256 47.3378 52.1516 48.5918L53.1643 52.4893C53.5747 54.068 53.6402 55.6826 53.3684 57.3135L52.6868 61.4004C52.5054 62.4886 52.554 63.5417 52.8264 64.5791L53.8626 68.5244C54.2588 70.0332 54.4214 71.5628 54.3469 73.1065L54.1536 77.1182C54.0963 78.3061 54.1783 80.1701 54.4299 82.7715L54.8108 86.708L54.8157 86.7617L54.8186 86.8154L54.8225 86.915C54.8693 88.0185 54.0128 88.9511 52.9094 88.9981C51.806 89.0448 50.8733 88.1884 50.8264 87.085L50.8235 87.0391L50.4485 83.1563C50.1925 80.5095 50.0858 78.4121 50.1575 76.9258L50.3518 72.9141C50.4064 71.7837 50.2878 70.6611 49.9934 69.54L48.9573 65.5957C48.5391 64.0034 48.4689 62.3793 48.7415 60.7432L49.4221 56.6563C49.6043 55.5628 49.5582 54.5158 49.2932 53.4961L48.2805 49.5977C47.931 48.2532 47.6295 46.9021 47.3772 45.544L46.6458 41.6084C46.3908 40.236 46.2006 38.8531 46.0735 37.4609L45.7083 33.4688C45.5882 32.1533 45.4335 31.4608 45.3274 31.1934L45.0051 30.3809L44.3596 28.8086L44.2747 28.6035L44.221 28.2852Z" fill="#584F27"/>
</svg>
