<svg width="255" height="295" viewBox="0 0 255 295" fill="none" xmlns="http://www.w3.org/2000/svg">
<path d="M37.8113 217.988C37.8555 217.578 37.9011 216.866 37.9479 215.854C38.0446 214.763 38.0955 213.616 38.1007 212.412C38.1696 211.194 38.1887 210.054 38.1578 208.992C38.1768 207.852 38.2085 207.076 38.2527 206.666C38.3021 205.051 38.3875 203.295 38.5089 201.397C38.6941 199.486 39.0985 197.66 39.7221 195.921C40.3457 194.181 41.287 192.673 42.5461 191.397C43.855 190.042 45.626 189.122 47.859 188.636C48.6884 188.455 49.3321 188.649 49.79 189.218C50.2978 189.709 50.7558 190.277 51.1638 190.924C51.2194 191.179 51.3236 191.657 51.4764 192.359C51.6791 192.983 51.8082 193.423 51.8638 193.678C52.4612 196.421 52.702 198.908 52.5862 201.139C52.5343 203.355 52.1286 205.482 51.3692 207.518C50.6735 209.541 49.7019 211.523 48.4542 213.466C47.1926 215.344 45.7285 217.367 44.062 219.534C44.0398 219.74 44.0136 220.079 43.9832 220.554C43.9529 221.028 43.9586 221.361 44.0002 221.553L44.0419 221.744C44.292 222.892 44.6848 223.776 45.2204 224.394C45.7561 225.013 46.3915 225.476 47.1267 225.783C47.9119 226.013 48.7331 226.102 49.5903 226.049C50.4974 225.918 51.4613 225.742 52.4821 225.519C55.4808 224.867 58.2615 223.827 60.8243 222.4C63.3871 220.973 65.6155 219.085 67.5095 216.734C67.759 216.346 68.0446 215.816 68.3662 215.144C68.7376 214.395 69.1091 213.646 69.4806 212.897C69.8521 212.148 70.2763 211.487 70.7533 210.916C71.2163 210.28 71.7669 209.893 72.4049 209.754C73.0429 209.615 73.4812 209.787 73.72 210.27C73.9587 210.752 74.1337 211.249 74.2448 211.759C74.5504 213.163 74.3956 214.6 73.7802 216.07C73.2148 217.463 72.3414 218.823 71.16 220.149C70.0286 221.398 68.653 222.6 67.0333 223.754C65.4774 224.895 63.8937 225.908 62.2822 226.794C60.6708 227.679 59.0953 228.423 57.5559 229.026C56.0802 229.614 54.8001 230.027 53.7155 230.263C50.334 230.999 47.3768 231.075 44.8438 230.491C42.3607 229.828 40.3363 227.897 38.7706 224.696L37.8113 217.988ZM47.3913 196.155C46.3654 197.582 45.5738 198.857 45.0166 199.98C44.5093 201.026 44.1434 202.109 43.9191 203.227C43.7447 204.267 43.623 205.396 43.5541 206.614C43.5489 207.818 43.5536 209.22 43.568 210.821C44.5718 209.6 45.3523 208.428 45.9096 207.304C46.5306 206.166 46.9852 205.031 47.2733 203.9C47.5614 202.768 47.708 201.6 47.7132 200.396C47.7044 199.128 47.5972 197.714 47.3913 196.155Z" fill="#F2DFB4"/>
<path d="M155.534 89.9588C155.595 89.01 155.553 88.0502 155.408 87.0793C155.328 86.0945 155.233 85.0459 155.124 83.9335C155.08 82.8072 155.103 81.5325 155.194 80.1093C155.335 78.6085 155.664 76.8995 156.182 74.9824C156.7 73.0653 157.45 70.8304 158.431 68.2779C159.462 65.6476 160.871 62.6011 162.656 59.1384C162.828 58.7 163.077 58.3116 163.405 57.973C163.718 57.5707 164.098 57.3209 164.545 57.2236C165.31 57.0569 166.05 57.23 166.763 57.743C167.462 58.1922 167.888 58.7677 168.041 59.4695C168.055 59.5333 168.039 59.7705 167.995 60.1811C168.001 60.514 167.986 60.7512 167.95 60.8926C167.567 62.5129 167.182 63.9667 166.794 65.254C166.406 66.5413 165.98 67.8037 165.514 69.0411C165.034 70.2148 164.473 71.473 163.83 72.8159C163.251 74.1449 162.547 75.6682 161.718 77.3857C161.369 79.4664 161.088 81.3987 160.875 83.1825C160.662 84.9664 160.778 86.8791 161.222 88.9207C161.444 89.9415 161.657 90.764 161.86 91.3881C162.126 91.9983 162.633 92.7902 163.379 93.7637L164.432 93.5344C166.282 93.1316 168.228 91.9394 170.269 89.958C172.36 87.8988 174.332 85.5984 176.184 83.0567C178.086 80.4372 179.758 77.8345 181.2 75.2485C182.641 72.6625 183.663 70.6024 184.264 69.0681C184.364 68.9127 184.461 68.5909 184.555 68.1026C184.699 67.5366 184.789 67.1829 184.826 67.0414C184.87 66.6308 184.954 65.9442 185.079 64.9815C185.189 63.955 185.293 62.8966 185.39 61.8064C185.55 60.7022 185.693 59.6688 185.817 58.7061C185.928 57.6796 186.005 56.9611 186.05 56.5505C186.052 55.9485 186.238 55.574 186.607 55.4268C186.976 55.2797 187.352 55.1644 187.734 55.081C188.883 54.831 189.672 54.9264 190.102 55.3674C190.518 55.7445 190.845 56.4754 191.081 57.56L191.435 59.1869C191.172 61.0485 190.945 62.7685 190.754 64.3471C190.627 65.9117 190.493 67.4445 190.352 68.9453C190.275 70.4323 190.294 71.8984 190.408 73.3437C190.522 74.789 190.76 76.3411 191.121 77.9999C191.163 78.1913 191.228 78.6448 191.317 79.3605C191.47 80.0623 191.662 80.7891 191.892 81.5408C192.172 82.2148 192.51 82.8431 192.904 83.4255C193.348 83.9303 193.857 84.1201 194.431 83.9951C195.962 83.6617 197.484 83.1299 198.996 82.3998C200.557 81.592 202.098 80.6885 203.618 79.6893C205.124 78.6263 206.52 77.5203 207.807 76.3714C209.158 75.2085 210.412 74.0665 211.572 72.9454C211.863 72.7483 212.183 72.3779 212.533 71.834C212.882 71.2902 213.27 70.7713 213.697 70.2773C214.11 69.7196 214.537 69.2256 214.978 68.7955C215.419 68.3654 215.863 68.1017 216.31 68.0044C217.586 67.7266 218.363 68.2257 218.64 69.5017C218.849 70.4587 218.497 71.6045 217.585 72.9392C216.658 74.2101 215.413 75.5504 213.849 76.9602C212.349 78.3561 210.611 79.7368 208.637 81.1024C206.662 82.4679 204.73 83.7239 202.841 84.8702C201.002 85.9389 199.334 86.8702 197.836 87.6641C196.325 88.3942 195.218 88.8357 194.516 88.9885C194.261 89.0441 193.782 89.1483 193.081 89.3011C192.429 89.3762 191.975 89.4416 191.72 89.4971C190.644 89.4642 189.721 89.0636 188.952 88.2955C188.184 87.5273 187.522 86.6356 186.967 85.6205C186.461 84.5276 186.059 83.4459 185.759 82.3751C185.445 81.2406 185.211 80.3225 185.059 79.6207C184.895 79.7899 184.675 80.005 184.397 80.2659C184.17 80.449 184.045 80.6433 184.023 80.8486C183.61 81.4063 182.901 82.2957 181.897 83.5166C180.944 84.6599 179.883 85.9267 178.715 87.3169C177.598 88.6294 176.53 89.8643 175.513 91.0215C174.559 92.1647 173.9 92.9764 173.537 93.4564C172.469 94.6913 171.239 95.7944 169.847 96.7659C168.455 97.7373 166.961 98.3967 165.366 98.744C163.707 99.1052 162.344 99.1348 161.275 98.8327C160.193 98.4669 159.268 97.8999 158.499 97.1317C157.781 96.2859 157.187 95.2458 156.717 94.0114C156.248 92.7771 155.854 91.4262 155.534 89.9588Z" fill="#F2DFB4"/>
<path d="M106.631 108.427C106.589 108.235 106.485 107.757 106.318 106.991C106.151 106.226 106.04 105.715 105.985 105.46C104.067 101.868 103.087 98.1387 103.047 94.2715C103.071 90.3905 103.784 86.7603 105.187 83.3809C106.639 79.9238 108.745 76.8591 111.504 74.1866C114.314 71.4365 117.584 69.4214 121.315 68.1412L123.037 67.7661C124.441 67.4605 125.659 67.5294 126.691 67.9729C127.773 68.3388 128.673 68.9446 129.392 69.7905C130.175 70.6225 130.794 71.6237 131.249 72.7942C131.768 73.9509 132.16 75.1353 132.424 76.3475C132.785 78.0063 132.948 79.6749 132.912 81.3533C132.927 82.954 132.884 84.6005 132.785 86.2927C132.749 87.9711 132.714 89.6495 132.678 91.3278C132.693 92.9285 132.888 94.5902 133.263 96.3128L133.388 96.887C133.479 97.0007 133.626 97.3696 133.829 97.9937C134.082 98.5401 134.254 98.8702 134.345 98.9839C134.473 98.9561 134.799 98.9186 135.323 98.8712C135.834 98.7601 136.153 98.6906 136.28 98.6628C136.918 98.5239 137.524 98.3919 138.099 98.2669C138.723 98.0642 139.326 97.7658 139.908 97.3716L156.258 84.9906C156.322 84.9767 156.417 84.9559 156.545 84.9281C156.722 84.8226 156.843 84.7629 156.907 84.7491C157.545 84.6101 158.097 84.6904 158.563 84.9898C159.093 85.2754 159.428 85.7372 159.566 86.3752C159.636 86.6942 159.673 87.0201 159.679 87.353C159.735 87.6082 159.631 87.8982 159.367 88.2228C158.99 88.6391 158.258 89.2663 157.171 90.1045C156.147 90.9287 155.042 91.8376 153.855 92.8312C152.668 93.8247 151.538 94.7725 150.465 95.6744C149.455 96.5625 148.716 97.1578 148.248 97.4603C147.465 98.1652 146.581 98.8591 145.593 99.5419C144.592 100.161 143.559 100.787 142.494 101.42C141.429 102.052 140.35 102.622 139.257 103.127C138.214 103.554 137.246 103.865 136.353 104.06C134.949 104.366 133.752 104.392 132.762 104.14C131.757 103.824 130.949 103.332 130.335 102.664C129.708 101.932 129.181 101.044 128.753 100.001C128.375 98.8805 128.118 97.7002 127.982 96.4602C126.928 97.7589 125.793 99.1422 124.575 100.61C123.358 102.078 122.056 103.464 120.669 104.768C119.283 106.073 117.837 107.256 116.331 108.319C114.825 109.382 113.21 110.102 111.488 110.477C110.531 110.685 109.621 110.649 108.758 110.369C107.881 110.026 107.172 109.378 106.631 108.427ZM111.361 105.292C112.828 104.972 114.365 104.203 115.971 102.985C117.563 101.703 119.081 100.236 120.526 98.585C121.971 96.9338 123.242 95.2537 124.34 93.5444C125.424 91.7714 126.224 90.2273 126.739 88.9122C126.387 86.9843 126.246 85.1104 126.317 83.2905C126.439 81.393 126.298 79.5191 125.895 77.6689C125.867 77.5412 125.794 77.3568 125.674 77.1155C125.619 76.8603 125.577 76.6689 125.549 76.5413C124.567 76.0201 123.775 75.7582 123.173 75.7556C122.571 75.753 121.792 75.856 120.835 76.0643C120.707 76.0921 120.42 76.1546 119.973 76.2519C119.59 76.3352 119.342 76.4227 119.228 76.5143C118.915 76.9166 118.409 77.6617 117.71 78.7494C116.998 79.7733 116.242 80.9068 115.444 82.1499C114.709 83.3791 113.992 84.5375 113.293 85.6252C112.659 86.699 112.216 87.4302 111.967 87.8186C111.903 87.8325 111.803 87.9879 111.667 88.2848C111.518 88.5179 111.35 88.8217 111.164 89.1963C111.042 89.5569 110.92 89.9176 110.798 90.2783C110.726 90.5613 110.679 90.8054 110.657 91.0107L110.798 102.708L111.361 105.292Z" fill="#F2DFB4"/>
<path d="M76.7587 113.026C76.4839 112.685 76.044 112.046 75.4389 111.109C74.8338 110.171 74.183 109.177 73.4863 108.126C72.7896 107.074 72.1069 106.087 71.438 105.164C70.8329 104.226 70.393 103.587 70.1182 103.246C69.935 103.018 69.7519 102.791 69.5687 102.563C69.4493 102.322 69.2482 102.165 68.9652 102.093C67.8533 103.739 66.5958 105.483 65.1927 107.325C63.8534 109.154 62.3587 110.883 60.7087 112.512C59.1085 114.063 57.371 115.444 55.4961 116.654C53.6073 117.8 51.6421 118.596 49.6004 119.04C47.3674 119.527 45.4462 119.143 43.8368 117.89C42.2134 116.572 40.8147 114.906 39.6406 112.889C38.4525 110.809 37.5127 108.641 36.8212 106.386C36.1297 104.131 35.6242 102.27 35.3046 100.802C34.6656 97.8675 34.5676 95.1156 35.0106 92.5466C35.4397 89.9138 36.3349 87.5804 37.6963 85.5465C39.1077 83.4349 40.9283 81.6686 43.1582 80.2475C45.3881 78.8263 48.0024 77.7893 51.0011 77.1364C53.1065 76.6779 55.0678 76.7854 56.8851 77.4589C58.6885 78.0686 60.3062 79.0529 61.7381 80.4118C63.2199 81.6929 64.5132 83.1822 65.6179 84.8796C66.7864 86.5631 67.8134 88.2106 68.6989 89.8221C69.2036 89.378 69.7137 88.4985 70.2293 87.1833C70.7947 85.7905 71.3394 84.302 71.8631 82.7178C72.4368 81.0559 72.9536 79.4398 73.4136 77.8695C73.9235 76.2214 74.3045 74.9022 74.5566 73.9118C74.6786 73.5511 74.9196 72.6633 75.2798 71.2483C75.6898 69.7557 76.111 68.1604 76.5432 66.4625C77.0391 64.7507 77.4603 63.1554 77.8065 61.6767C78.2166 60.184 78.4826 59.2574 78.6046 58.8967C78.6406 58.7552 78.7514 58.4972 78.9372 58.1226C79.109 57.6842 79.213 57.3943 79.249 57.2528C79.1852 57.2667 79.1463 57.2417 79.1324 57.1779L79.0908 56.9865L79.0283 56.6994C76.0934 57.3385 73.2057 57.7334 70.365 57.8842C67.5881 58.021 65.0469 57.7056 62.7413 56.938C60.4357 56.1703 58.4157 54.8727 56.6813 53.0451C55.0106 51.2037 53.8002 48.5603 53.05 45.1151C53.0083 44.9237 52.9041 44.4452 52.7374 43.6796C52.6345 42.9001 52.5553 42.3827 52.4997 42.1275C52.5522 41.4478 52.792 40.861 53.219 40.3671C53.6322 39.8093 54.1438 39.3972 54.7541 39.1307C55.3005 38.8781 55.7847 39.1068 56.2066 39.8168C56.6923 40.5129 57.1698 41.4782 57.639 42.7125C58.1721 43.933 58.7578 45.2422 59.3964 46.6401C60.0987 48.0242 61.0104 49.2958 62.1316 50.455C63.3026 51.5365 64.6942 52.403 66.3062 53.0544C67.982 53.6919 70.046 53.8104 72.4982 53.4101C72.6258 53.3823 73.0474 53.3239 73.7631 53.2349C74.5287 53.0682 75.1667 52.9293 75.6772 52.8182C75.9962 52.7487 76.4428 52.6515 77.017 52.5264C77.655 52.3875 78.2611 52.2555 78.8353 52.1305C79.4594 51.9278 80.0128 51.707 80.4954 51.4683C81.0279 51.1519 81.387 50.8064 81.5728 50.4318C81.8583 49.9018 82.3296 48.9973 82.9867 47.7182C83.6936 46.3614 84.3936 44.9727 85.0867 43.5521C85.7797 42.1315 86.4548 40.7817 87.1118 39.5025C87.755 38.1596 88.2193 37.2232 88.5049 36.6933C89.3533 35.3725 90.3294 34.0239 91.433 32.6476C92.5367 31.2712 93.7319 30.0086 95.0187 28.8596C96.3055 27.7107 97.6909 26.7074 99.1747 25.8497C100.659 24.992 102.23 24.3825 103.889 24.0213C105.037 23.7712 106.043 23.7861 106.906 24.066C107.832 24.332 108.602 24.7992 109.216 25.4676C109.815 26.0722 110.283 26.839 110.619 27.7683C111.005 28.6198 111.302 29.5241 111.51 30.4811C111.913 32.3313 111.789 34.0624 111.137 35.6744C110.55 37.2725 109.64 38.7736 108.409 40.1778C107.178 41.5819 105.784 42.8543 104.228 43.995C102.736 45.1218 101.28 46.1071 99.8602 46.951C99.3914 47.2535 98.5288 47.7421 97.2724 48.4166C96.0159 49.0911 94.6458 49.8573 93.1619 50.715C91.7279 51.495 90.3508 52.2292 89.0305 52.9177C87.7741 53.5922 86.8657 54.0239 86.3054 54.2127C85.956 54.7566 85.5637 55.41 85.1284 56.1731C84.7569 56.9222 84.4992 57.5798 84.3551 58.1457L77.2726 82.2416C77.2087 82.2555 77.1269 82.3401 77.0271 82.4955C76.9772 82.5732 76.9273 82.6509 76.8774 82.7286C76.9052 82.8562 76.8651 83.1322 76.757 83.5567C76.6351 83.9174 76.527 84.3419 76.4329 84.8302C76.3248 85.2546 76.2168 85.6791 76.1087 86.1036C76.0007 86.5281 75.9536 86.7722 75.9675 86.836C75.8317 87.1329 75.5919 87.7197 75.2482 88.5965C74.9544 89.3955 74.6107 90.2723 74.2171 91.2267C73.8096 92.1173 73.4271 92.9691 73.0695 93.7821C72.7757 94.5811 72.5609 95.1291 72.425 95.426L72.4876 95.7131L72.5292 95.9045C73.337 97.466 74.0324 98.8182 74.6154 99.961C75.2482 101.026 75.8423 102.066 76.3974 103.081C77.0164 104.083 77.7131 105.134 78.4874 106.235C79.2618 107.336 80.2443 108.625 81.4349 110.104C81.7873 110.495 82.2285 110.833 82.7585 111.119C83.2885 111.404 83.8184 111.69 84.3484 111.975C84.9421 112.247 85.4471 112.571 85.8634 112.948C86.3296 113.248 86.6113 113.621 86.7085 114.068C86.9586 115.216 86.5094 115.915 85.361 116.165C83.7022 116.526 82.1306 116.367 80.6462 115.688C79.1618 115.009 77.8659 114.122 76.7587 113.026ZM39.8813 98.8034C40.048 99.569 40.3897 100.831 40.9062 102.59C41.4089 104.285 42.0531 106.015 42.8388 107.782C43.6744 109.472 44.6597 110.928 45.7948 112.151C46.9936 113.36 48.3267 113.805 49.7941 113.485C51.5168 113.11 52.9646 112.394 54.1377 111.336C55.3746 110.265 56.6892 109.244 58.0815 108.272L65.9174 96.843L65.834 96.4602C65.584 95.3118 64.9704 93.875 63.9933 92.1498C63.08 90.4107 61.9504 88.7522 60.6044 87.1741C59.2584 85.5961 57.8154 84.3399 56.2754 83.4055C54.7216 82.4074 53.2109 82.068 51.7435 82.3876C49.6381 82.846 47.7159 83.5319 45.9768 84.4452C44.3015 85.3446 42.9439 86.4755 41.9041 87.8379C40.8643 89.2004 40.1421 90.7944 39.7377 92.6199C39.3333 94.4454 39.3812 96.5066 39.8813 98.8034ZM104.153 29.3767C102.622 29.7101 101.16 30.3625 99.7675 31.3339C98.3752 32.3054 97.0884 33.4543 95.907 34.7807C94.7257 36.1072 93.6609 37.5085 92.7126 38.9847C91.7644 40.4608 90.9617 41.8385 90.3047 43.1176C90.1051 43.4283 89.8694 43.8806 89.5978 44.4744C89.3899 45.0542 89.1432 45.6091 88.8576 46.1391C88.622 46.5914 88.4182 47.0367 88.2464 47.4751C88.0606 47.8496 87.9678 48.0369 87.9678 48.0369L88.072 48.5154L88.4548 48.4321C88.5186 48.4182 88.9374 48.1933 89.7112 47.7575C90.4851 47.3217 91.3796 46.8262 92.3947 46.2711C93.4598 45.6382 94.5318 45.0372 95.6107 44.4682C96.6758 43.8353 97.4995 43.3218 98.082 42.9277C98.9695 42.4003 99.9638 41.7494 101.065 40.9751C102.216 40.123 103.25 39.1961 104.168 38.1943C105.15 37.1786 105.919 36.1089 106.477 34.9852C107.034 33.8615 107.18 32.6935 106.917 31.4813C106.694 30.4605 106.389 29.8253 106 29.5758C105.662 29.2486 105.046 29.1822 104.153 29.3767Z" fill="#F2DFB4"/>
<path d="M205.218 189.354C205.204 189.291 205.188 189.06 205.168 188.664C205.149 188.267 205.129 187.87 205.109 187.474C205.076 187.013 205.056 186.616 205.051 186.283C205.031 185.887 205.008 185.625 204.98 185.497L204.896 185.114L204.771 184.54L204.798 178.219C205.383 175.686 206.02 173.242 206.71 170.886C207.464 168.517 208.433 166.368 209.617 164.44C210.801 162.511 212.277 160.853 214.047 159.465C215.88 158.064 218.232 157.051 221.103 156.425C221.677 156.3 222.421 156.339 223.333 156.541C224.296 156.666 225.248 156.893 226.188 157.223C227.193 157.539 228.108 157.907 228.935 158.329C229.812 158.672 230.49 159.026 230.97 159.389C232.879 158.639 234.279 158.167 235.173 157.973C236.052 157.714 236.811 157.516 237.449 157.377C238.073 157.174 238.715 156.901 239.375 156.557C240.099 156.198 241.157 155.534 242.549 154.562C243.564 154.007 244.582 153.618 245.603 153.396C246.05 153.299 246.506 153.4 246.972 153.699C247.502 153.985 247.823 154.383 247.934 154.893C248.073 155.531 247.975 156.154 247.639 156.762C247.304 157.369 246.831 157.807 246.221 158.073L234.842 163.357L233.893 164.065C234.579 167.524 234.529 170.977 233.743 174.423C232.956 177.868 231.607 181.035 229.697 183.924C227.787 186.813 225.389 189.306 222.505 191.404C219.606 193.439 216.435 194.831 212.989 195.581C212.734 195.637 212.313 195.695 211.724 195.756C211.15 195.881 210.767 195.965 210.576 196.006C209.047 195.738 207.829 194.9 206.922 193.494C206.078 192.074 205.51 190.694 205.218 189.354ZM211.76 189.935C211.893 190.24 212.183 190.344 212.63 190.246C213.076 190.149 213.395 190.08 213.587 190.038C215.884 189.538 218.119 188.45 220.294 186.773C222.454 185.033 224.29 183.03 225.801 180.763C227.362 178.418 228.492 175.933 229.19 173.309C229.938 170.607 230.048 168.043 229.52 165.619C227.478 166.063 225.402 166.348 223.291 166.474C221.166 166.536 219.147 166.775 217.233 167.192L217.137 167.213L211.027 177.364C210.678 177.908 210.459 178.59 210.371 179.411C210.282 180.233 210.271 181.104 210.338 182.025C210.405 182.946 210.504 183.86 210.635 184.767C210.765 185.674 210.907 186.478 211.06 187.18C211.102 187.372 211.199 187.818 211.352 188.52C211.504 189.222 211.641 189.693 211.76 189.935Z" fill="#F2DFB4"/>
<path d="M168.184 189.6C168.229 189.189 168.274 188.478 168.321 187.465C168.418 186.375 168.469 185.228 168.474 184.024C168.543 182.806 168.562 181.666 168.531 180.603C168.55 179.463 168.582 178.688 168.626 178.277C168.675 176.662 168.761 174.906 168.882 173.009C169.067 171.097 169.472 169.272 170.095 167.532C170.719 165.793 171.66 164.285 172.919 163.008C174.228 161.654 175.999 160.734 178.232 160.247C179.061 160.067 179.705 160.261 180.163 160.829C180.671 161.32 181.129 161.889 181.537 162.535C181.592 162.79 181.697 163.269 181.849 163.97C182.052 164.595 182.181 165.034 182.237 165.289C182.834 168.033 183.075 170.52 182.959 172.75C182.907 174.967 182.502 177.093 181.742 179.13C181.047 181.152 180.075 183.135 178.827 185.077C177.566 186.956 176.102 188.978 174.435 191.146C174.413 191.351 174.387 191.691 174.356 192.165C174.326 192.64 174.332 192.972 174.373 193.164L174.415 193.355C174.665 194.504 175.058 195.387 175.593 196.006C176.129 196.624 176.765 197.087 177.5 197.395C178.285 197.625 179.106 197.713 179.963 197.66C180.87 197.53 181.834 197.353 182.855 197.131C185.854 196.478 188.635 195.438 191.197 194.011C193.76 192.584 195.989 190.696 197.883 188.346C198.132 187.957 198.418 187.427 198.739 186.756C199.111 186.007 199.482 185.257 199.854 184.508C200.225 183.759 200.649 183.099 201.126 182.527C201.589 181.892 202.14 181.504 202.778 181.366C203.416 181.227 203.854 181.398 204.093 181.881C204.332 182.364 204.507 182.86 204.618 183.371C204.923 184.774 204.769 186.211 204.153 187.682C203.588 189.075 202.714 190.434 201.533 191.761C200.402 193.009 199.026 194.211 197.406 195.366C195.85 196.506 194.267 197.519 192.655 198.405C191.044 199.29 189.468 200.034 187.929 200.637C186.453 201.226 185.173 201.638 184.089 201.874C180.707 202.61 177.75 202.686 175.217 202.102C172.734 201.44 170.709 199.508 169.144 196.307L168.184 189.6ZM177.764 167.767C176.738 169.193 175.947 170.468 175.39 171.592C174.882 172.638 174.516 173.72 174.292 174.838C174.118 175.878 173.996 177.007 173.927 178.225C173.922 179.429 173.927 180.832 173.941 182.432C174.945 181.211 175.725 180.039 176.283 178.915C176.904 177.778 177.358 176.643 177.646 175.511C177.934 174.379 178.081 173.211 178.086 172.007C178.077 170.739 177.97 169.326 177.764 167.767Z" fill="#F2DFB4"/>
<path d="M141.511 206.133C141.236 205.792 140.796 205.152 140.191 204.215C139.586 203.278 138.935 202.283 138.238 201.232C137.542 200.181 136.859 199.194 136.19 198.27C135.585 197.333 135.145 196.693 134.87 196.352C134.687 196.125 134.504 195.897 134.321 195.67C134.201 195.429 134 195.272 133.717 195.2C132.605 196.845 131.348 198.589 129.945 200.432C128.605 202.26 127.111 203.989 125.461 205.618C123.86 207.169 122.123 208.55 120.248 209.76C118.359 210.907 116.394 211.702 114.352 212.147C112.119 212.633 110.198 212.249 108.589 210.996C106.965 209.679 105.567 208.012 104.393 205.996C103.204 203.915 102.265 201.748 101.573 199.493C100.882 197.238 100.376 195.376 100.057 193.909C99.4175 190.974 99.3195 188.222 99.7625 185.653C100.192 183.02 101.087 180.687 102.448 178.653C103.86 176.541 105.68 174.775 107.91 173.354C110.14 171.933 112.754 170.896 115.753 170.243C117.858 169.784 119.82 169.892 121.637 170.565C123.44 171.175 125.058 172.159 126.49 173.518C127.972 174.799 129.265 176.289 130.37 177.986C131.538 179.67 132.565 181.317 133.451 182.929C133.956 182.484 134.466 181.605 134.981 180.29C135.547 178.897 136.091 177.408 136.615 175.824C137.189 174.162 137.706 172.546 138.166 170.976C138.675 169.328 139.056 168.009 139.309 167.018C139.431 166.658 139.672 165.77 140.032 164.355C140.442 162.862 140.863 161.267 141.295 159.569C141.791 157.857 142.212 156.262 142.558 154.783C142.969 153.29 143.235 152.364 143.357 152.003C143.393 151.862 143.503 151.604 143.689 151.229C143.861 150.791 143.965 150.501 144.001 150.359C143.937 150.373 143.898 150.348 143.884 150.284L143.843 150.093L143.78 149.806C140.845 150.445 137.958 150.84 135.117 150.991C132.34 151.127 129.799 150.812 127.493 150.044C125.188 149.277 123.168 147.979 121.433 146.152C119.763 144.31 118.552 141.667 117.802 138.222C117.76 138.03 117.656 137.552 117.489 136.786C117.386 136.007 117.307 135.489 117.252 135.234C117.304 134.554 117.544 133.967 117.971 133.474C118.384 132.916 118.896 132.504 119.506 132.237C120.052 131.984 120.537 132.213 120.959 132.923C121.444 133.619 121.922 134.585 122.391 135.819C122.924 137.039 123.51 138.349 124.148 139.747C124.851 141.131 125.762 142.402 126.884 143.561C128.055 144.643 129.446 145.509 131.058 146.161C132.734 146.798 134.798 146.917 137.25 146.517C137.378 146.489 137.799 146.43 138.515 146.341C139.281 146.175 139.919 146.036 140.429 145.925C140.748 145.855 141.195 145.758 141.769 145.633C142.407 145.494 143.013 145.362 143.587 145.237C144.211 145.034 144.765 144.813 145.247 144.575C145.78 144.258 146.139 143.913 146.325 143.538C146.61 143.008 147.082 142.104 147.739 140.825C148.446 139.468 149.146 138.079 149.839 136.659C150.532 135.238 151.207 133.888 151.864 132.609C152.507 131.266 152.971 130.33 153.257 129.8C154.105 128.479 155.081 127.13 156.185 125.754C157.289 124.378 158.484 123.115 159.771 121.966C161.057 120.817 162.443 119.814 163.927 118.956C165.411 118.098 166.982 117.489 168.641 117.128C169.789 116.878 170.795 116.893 171.658 117.172C172.584 117.438 173.354 117.906 173.968 118.574C174.567 119.179 175.035 119.945 175.371 120.875C175.757 121.726 176.054 122.631 176.262 123.588C176.665 125.438 176.541 127.169 175.889 128.781C175.302 130.379 174.392 131.88 173.161 133.284C171.93 134.688 170.536 135.961 168.98 137.101C167.488 138.228 166.032 139.214 164.612 140.057C164.143 140.36 163.281 140.848 162.024 141.523C160.768 142.198 159.398 142.964 157.914 143.821C156.48 144.601 155.103 145.336 153.782 146.024C152.526 146.699 151.618 147.13 151.057 147.319C150.708 147.863 150.316 148.516 149.88 149.28C149.509 150.029 149.251 150.686 149.107 151.252L142.025 175.348C141.961 175.362 141.879 175.447 141.779 175.602C141.729 175.68 141.679 175.757 141.629 175.835C141.657 175.963 141.617 176.239 141.509 176.663C141.387 177.024 141.279 177.448 141.185 177.937C141.077 178.361 140.969 178.786 140.861 179.21C140.753 179.635 140.706 179.879 140.719 179.942C140.584 180.239 140.344 180.826 140 181.703C139.706 182.502 139.363 183.379 138.969 184.333C138.562 185.224 138.179 186.076 137.821 186.889C137.528 187.688 137.313 188.236 137.177 188.532L137.24 188.82L137.281 189.011C138.089 190.572 138.784 191.925 139.367 193.067C140 194.132 140.594 195.173 141.149 196.188C141.768 197.189 142.465 198.24 143.239 199.341C144.014 200.442 144.996 201.732 146.187 203.21C146.539 203.601 146.98 203.939 147.51 204.225C148.04 204.511 148.57 204.796 149.1 205.082C149.694 205.353 150.199 205.678 150.615 206.055C151.082 206.354 151.363 206.727 151.46 207.174C151.711 208.322 151.261 209.022 150.113 209.272C148.454 209.633 146.883 209.474 145.398 208.795C143.914 208.116 142.618 207.228 141.511 206.133ZM104.633 191.91C104.8 192.675 105.142 193.938 105.658 195.696C106.161 197.391 106.805 199.122 107.591 200.889C108.426 202.578 109.412 204.034 110.547 205.257C111.746 206.466 113.079 206.911 114.546 206.591C116.269 206.216 117.717 205.5 118.89 204.443C120.127 203.372 121.441 202.35 122.833 201.379L130.669 189.949L130.586 189.567C130.336 188.418 129.722 186.981 128.745 185.256C127.832 183.517 126.702 181.859 125.356 180.281C124.01 178.703 122.567 177.446 121.027 176.512C119.474 175.514 117.963 175.174 116.495 175.494C114.39 175.952 112.468 176.638 110.729 177.552C109.053 178.451 107.696 179.582 106.656 180.944C105.616 182.307 104.894 183.901 104.49 185.726C104.085 187.552 104.133 189.613 104.633 191.91ZM168.905 122.483C167.373 122.817 165.912 123.469 164.519 124.44C163.127 125.412 161.84 126.561 160.659 127.887C159.478 129.214 158.413 130.615 157.465 132.091C156.516 133.567 155.714 134.945 155.057 136.224C154.857 136.535 154.621 136.987 154.35 137.581C154.142 138.161 153.895 138.716 153.61 139.246C153.374 139.698 153.17 140.143 152.998 140.582C152.813 140.956 152.72 141.143 152.72 141.143L152.824 141.622L153.207 141.539C153.271 141.525 153.689 141.3 154.463 140.864C155.237 140.428 156.132 139.933 157.147 139.378C158.212 138.745 159.284 138.144 160.363 137.575C161.428 136.942 162.251 136.428 162.834 136.034C163.721 135.507 164.716 134.856 165.817 134.081C166.968 133.229 168.002 132.303 168.92 131.301C169.902 130.285 170.671 129.215 171.229 128.092C171.786 126.968 171.932 125.8 171.668 124.588C171.446 123.567 171.141 122.932 170.752 122.682C170.414 122.355 169.798 122.289 168.905 122.483Z" fill="#F2DFB4"/>
<path d="M236.914 278.696C236.914 277.758 237.063 276.782 237.359 275.766C237.672 274.735 238.047 273.727 238.484 272.743C238.938 271.743 239.422 270.782 239.938 269.86C240.469 268.922 240.953 268.079 241.391 267.329C241.438 267.016 241.484 266.75 241.531 266.532C241.594 266.297 241.68 266.102 241.789 265.946C241.914 265.79 242.07 265.672 242.258 265.594C242.445 265.5 242.695 265.454 243.008 265.454C243.008 265.829 242.969 266.25 242.891 266.719C242.828 267.172 242.711 267.563 242.539 267.891L239.047 274.922C238.922 275.157 238.805 275.422 238.695 275.719C238.602 276 238.516 276.305 238.438 276.633C238.375 276.946 238.328 277.266 238.297 277.594C238.266 277.907 238.25 278.196 238.25 278.461C238.25 278.93 238.344 279.313 238.531 279.61C238.719 279.907 238.961 280.133 239.258 280.29C239.57 280.446 239.906 280.555 240.266 280.618C240.641 280.665 241 280.688 241.344 280.688C241.344 280.438 241.313 280.196 241.25 279.961C241.188 279.711 241.117 279.469 241.039 279.235C240.977 278.985 240.914 278.735 240.852 278.485C240.789 278.235 240.758 277.969 240.758 277.688C240.758 277.141 240.828 276.563 240.969 275.954C241.125 275.329 241.352 274.75 241.648 274.219C241.961 273.688 242.359 273.25 242.844 272.907C243.344 272.547 243.938 272.368 244.625 272.368C245.141 272.368 245.617 272.477 246.055 272.696C246.508 272.915 246.891 273.204 247.203 273.563C247.516 273.922 247.758 274.336 247.93 274.805C248.117 275.258 248.211 275.743 248.211 276.258C248.211 277.227 248.039 278.071 247.695 278.79C247.352 279.493 246.883 280.079 246.289 280.547C245.695 281.016 245 281.368 244.203 281.602C243.422 281.836 242.586 281.954 241.695 281.954C241.617 281.954 241.492 281.954 241.32 281.954C241.148 281.954 240.961 281.954 240.758 281.954C240.555 281.938 240.367 281.93 240.195 281.93C240.023 281.93 239.898 281.93 239.82 281.93C239.492 281.805 239.156 281.649 238.813 281.461C238.469 281.258 238.156 281.024 237.875 280.758C237.594 280.477 237.359 280.172 237.172 279.844C237 279.5 236.914 279.118 236.914 278.696ZM241.93 277.125C241.93 277.297 241.938 277.586 241.953 277.993C241.984 278.399 242.039 278.813 242.117 279.235C242.195 279.641 242.313 280 242.469 280.313C242.625 280.625 242.836 280.782 243.102 280.782C243.758 280.782 244.328 280.672 244.813 280.454C245.313 280.219 245.727 279.907 246.055 279.516C246.383 279.125 246.625 278.672 246.781 278.157C246.953 277.641 247.039 277.086 247.039 276.493C247.039 276.149 247 275.805 246.922 275.461C246.859 275.102 246.742 274.782 246.57 274.5C246.414 274.219 246.195 273.993 245.914 273.821C245.633 273.649 245.289 273.563 244.883 273.563C244.398 273.563 243.969 273.672 243.594 273.891C243.234 274.11 242.93 274.391 242.68 274.735C242.445 275.079 242.258 275.461 242.117 275.883C241.992 276.305 241.93 276.719 241.93 277.125Z" fill="#F6BCE6"/>
<path d="M226.578 281.415C226.578 281.399 226.586 281.36 226.602 281.297C226.617 281.219 226.625 281.172 226.625 281.157L232.461 269.836C232.711 269.383 232.875 268.977 232.953 268.618C233.031 268.243 233.07 267.829 233.07 267.375C233.07 267.141 233.063 266.93 233.047 266.743C233.031 266.555 232.969 266.36 232.859 266.157C232.813 266.157 232.727 266.157 232.602 266.157C232.477 266.141 232.398 266.133 232.367 266.133C231.836 266.133 231.336 266.227 230.867 266.415C230.414 266.602 229.984 266.852 229.578 267.165C229.188 267.461 228.813 267.797 228.453 268.172C228.094 268.547 227.742 268.915 227.398 269.274C227.258 269.227 227.117 269.165 226.977 269.086C226.852 268.993 226.789 268.86 226.789 268.688C226.789 268.391 226.891 268.102 227.094 267.821C227.297 267.54 227.547 267.274 227.844 267.024C228.156 266.758 228.508 266.524 228.898 266.321C229.289 266.102 229.664 265.907 230.023 265.735C230.398 265.547 230.75 265.399 231.078 265.29C231.406 265.165 231.664 265.063 231.852 264.985C231.898 264.985 231.953 264.985 232.016 264.985C232.094 264.969 232.172 264.961 232.25 264.961C232.344 264.961 232.422 264.961 232.484 264.961C232.563 264.946 232.617 264.938 232.648 264.938C232.898 264.938 233.141 264.954 233.375 264.985C233.625 265 233.836 265.125 234.008 265.36C234.039 265.438 234.07 265.563 234.102 265.735C234.148 265.907 234.195 266.086 234.242 266.274C234.289 266.446 234.32 266.618 234.336 266.79C234.367 266.961 234.383 267.071 234.383 267.118C234.383 267.211 234.367 267.36 234.336 267.563C234.32 267.75 234.289 267.946 234.242 268.149C234.195 268.352 234.148 268.547 234.102 268.735C234.07 268.907 234.039 269.024 234.008 269.086L231.477 274.547C231.445 274.579 231.383 274.672 231.289 274.829C231.195 274.969 231.133 275.063 231.102 275.11C230.961 275.36 230.797 275.665 230.609 276.024C230.438 276.383 230.242 276.758 230.023 277.149C229.82 277.54 229.617 277.922 229.414 278.297C229.227 278.672 229.055 279.016 228.898 279.329C228.742 279.625 228.617 279.875 228.523 280.079C228.43 280.266 228.383 280.36 228.383 280.36V280.547C228.945 280.547 229.547 280.524 230.188 280.477C230.828 280.43 231.469 280.36 232.109 280.266C232.766 280.157 233.406 280 234.031 279.797C234.656 279.594 235.234 279.336 235.766 279.024C235.781 279.055 235.789 279.11 235.789 279.188C235.805 279.25 235.813 279.282 235.813 279.282C235.813 279.579 235.672 279.836 235.391 280.055C235.125 280.258 234.805 280.438 234.43 280.594C234.055 280.735 233.68 280.852 233.305 280.946C232.93 281.04 232.648 281.11 232.461 281.157C232.273 281.188 231.945 281.258 231.477 281.368C231.023 281.461 230.539 281.563 230.023 281.672C229.523 281.766 229.039 281.86 228.57 281.954C228.102 282.032 227.781 282.086 227.609 282.118C227.578 282.118 227.523 282.118 227.445 282.118C227.367 282.133 227.32 282.141 227.305 282.141C227.086 282.141 226.906 282.079 226.766 281.954C226.641 281.829 226.578 281.649 226.578 281.415Z" fill="#F6BCE6"/>
<path d="M213.359 275.133C213.359 274.477 213.422 273.743 213.547 272.93C213.672 272.118 213.867 271.297 214.133 270.469C214.398 269.641 214.727 268.844 215.117 268.079C215.523 267.297 215.992 266.61 216.523 266.016C217.055 265.407 217.656 264.922 218.328 264.563C219.016 264.188 219.766 264 220.578 264C220.797 264 221.094 264.016 221.469 264.047C221.844 264.079 222.203 264.157 222.547 264.282C222.906 264.407 223.211 264.586 223.461 264.821C223.727 265.04 223.859 265.329 223.859 265.688V265.782C223.859 265.813 223.836 265.875 223.789 265.969C223.742 266.063 223.703 266.125 223.672 266.157C223.656 266.172 223.648 266.18 223.648 266.18H223.602H223.531C223.516 266.18 223.5 266.172 223.484 266.157C223.453 266.141 223.391 266.094 223.297 266.016C223.219 265.938 223.125 265.86 223.016 265.782C222.906 265.688 222.805 265.602 222.711 265.524C222.617 265.446 222.555 265.391 222.523 265.36H222.477C222.461 265.36 222.445 265.36 222.43 265.36C222.414 265.36 222.398 265.36 222.383 265.36C222.367 265.36 222.352 265.36 222.336 265.36C223.32 266.844 224.055 268.368 224.539 269.93C225.023 271.477 225.266 273.141 225.266 274.922C225.266 275.782 225.172 276.641 224.984 277.5C224.813 278.36 224.516 279.133 224.094 279.821C223.688 280.508 223.148 281.071 222.477 281.508C221.805 281.93 220.961 282.141 219.945 282.141C219.023 282.141 218.156 281.946 217.344 281.555C216.547 281.165 215.852 280.641 215.258 279.985C214.664 279.329 214.195 278.586 213.852 277.758C213.523 276.915 213.359 276.04 213.359 275.133ZM214.133 275.602C214.133 276.43 214.281 277.196 214.578 277.899C214.891 278.586 215.32 279.18 215.867 279.68C216.414 280.18 217.055 280.563 217.789 280.829C218.523 281.079 219.32 281.188 220.18 281.157C220.914 281.11 221.531 280.907 222.031 280.547C222.531 280.172 222.93 279.711 223.227 279.165C223.539 278.618 223.758 278.016 223.883 277.36C224.008 276.688 224.07 276.047 224.07 275.438C224.07 274.938 224.047 274.344 224 273.657C223.969 272.969 223.883 272.258 223.742 271.524C223.617 270.774 223.438 270.032 223.203 269.297C222.984 268.563 222.688 267.907 222.313 267.329C221.938 266.735 221.484 266.258 220.953 265.899C220.438 265.54 219.813 265.36 219.078 265.36C218.563 265.36 218.078 265.563 217.625 265.969C217.188 266.375 216.781 266.899 216.406 267.54C216.047 268.18 215.719 268.891 215.422 269.672C215.141 270.454 214.898 271.227 214.695 271.993C214.508 272.758 214.367 273.461 214.273 274.102C214.18 274.743 214.133 275.243 214.133 275.602Z" fill="#F6BCE6"/>
<path d="M203.047 281.415C203.047 281.399 203.055 281.36 203.07 281.297C203.086 281.219 203.094 281.172 203.094 281.157L208.93 269.836C209.18 269.383 209.344 268.977 209.422 268.618C209.5 268.243 209.539 267.829 209.539 267.375C209.539 267.141 209.531 266.93 209.516 266.743C209.5 266.555 209.438 266.36 209.328 266.157C209.281 266.157 209.195 266.157 209.07 266.157C208.945 266.141 208.867 266.133 208.836 266.133C208.305 266.133 207.805 266.227 207.336 266.415C206.883 266.602 206.453 266.852 206.047 267.165C205.656 267.461 205.281 267.797 204.922 268.172C204.563 268.547 204.211 268.915 203.867 269.274C203.727 269.227 203.586 269.165 203.445 269.086C203.32 268.993 203.258 268.86 203.258 268.688C203.258 268.391 203.359 268.102 203.563 267.821C203.766 267.54 204.016 267.274 204.313 267.024C204.625 266.758 204.977 266.524 205.367 266.321C205.758 266.102 206.133 265.907 206.492 265.735C206.867 265.547 207.219 265.399 207.547 265.29C207.875 265.165 208.133 265.063 208.32 264.985C208.367 264.985 208.422 264.985 208.484 264.985C208.563 264.969 208.641 264.961 208.719 264.961C208.813 264.961 208.891 264.961 208.953 264.961C209.031 264.946 209.086 264.938 209.117 264.938C209.367 264.938 209.609 264.954 209.844 264.985C210.094 265 210.305 265.125 210.477 265.36C210.508 265.438 210.539 265.563 210.57 265.735C210.617 265.907 210.664 266.086 210.711 266.274C210.758 266.446 210.789 266.618 210.805 266.79C210.836 266.961 210.852 267.071 210.852 267.118C210.852 267.211 210.836 267.36 210.805 267.563C210.789 267.75 210.758 267.946 210.711 268.149C210.664 268.352 210.617 268.547 210.57 268.735C210.539 268.907 210.508 269.024 210.477 269.086L207.945 274.547C207.914 274.579 207.852 274.672 207.758 274.829C207.664 274.969 207.602 275.063 207.57 275.11C207.43 275.36 207.266 275.665 207.078 276.024C206.906 276.383 206.711 276.758 206.492 277.149C206.289 277.54 206.086 277.922 205.883 278.297C205.695 278.672 205.523 279.016 205.367 279.329C205.211 279.625 205.086 279.875 204.992 280.079C204.898 280.266 204.852 280.36 204.852 280.36V280.547C205.414 280.547 206.016 280.524 206.656 280.477C207.297 280.43 207.938 280.36 208.578 280.266C209.234 280.157 209.875 280 210.5 279.797C211.125 279.594 211.703 279.336 212.234 279.024C212.25 279.055 212.258 279.11 212.258 279.188C212.273 279.25 212.281 279.282 212.281 279.282C212.281 279.579 212.141 279.836 211.859 280.055C211.594 280.258 211.273 280.438 210.898 280.594C210.523 280.735 210.148 280.852 209.773 280.946C209.398 281.04 209.117 281.11 208.93 281.157C208.742 281.188 208.414 281.258 207.945 281.368C207.492 281.461 207.008 281.563 206.492 281.672C205.992 281.766 205.508 281.86 205.039 281.954C204.57 282.032 204.25 282.086 204.078 282.118C204.047 282.118 203.992 282.118 203.914 282.118C203.836 282.133 203.789 282.141 203.773 282.141C203.555 282.141 203.375 282.079 203.234 281.954C203.109 281.829 203.047 281.649 203.047 281.415Z" fill="#F6BCE6"/>
<path d="M183.406 278.461C183.438 278.368 183.484 278.204 183.547 277.969C183.625 277.719 183.695 277.454 183.758 277.172C183.836 276.891 183.898 276.625 183.945 276.375C184.008 276.11 184.055 275.93 184.086 275.836C184.18 275.461 184.289 275.055 184.414 274.618C184.555 274.18 184.742 273.774 184.977 273.399C185.211 273.024 185.508 272.719 185.867 272.485C186.242 272.235 186.703 272.11 187.25 272.11C187.453 272.11 187.594 272.188 187.672 272.344C187.766 272.485 187.844 272.641 187.906 272.813C187.906 272.875 187.906 272.993 187.906 273.165C187.922 273.321 187.93 273.43 187.93 273.493C187.93 274.165 187.859 274.758 187.719 275.274C187.594 275.79 187.391 276.266 187.109 276.704C186.844 277.141 186.516 277.555 186.125 277.946C185.734 278.321 185.289 278.719 184.789 279.141C184.773 279.188 184.75 279.266 184.719 279.375C184.688 279.485 184.672 279.563 184.672 279.61V279.657C184.672 279.938 184.719 280.165 184.813 280.336C184.906 280.508 185.031 280.649 185.188 280.758C185.359 280.852 185.547 280.915 185.75 280.946C185.969 280.961 186.203 280.969 186.453 280.969C187.188 280.969 187.891 280.868 188.563 280.665C189.234 280.461 189.852 280.133 190.414 279.68C190.492 279.602 190.586 279.493 190.695 279.352C190.82 279.196 190.945 279.04 191.07 278.883C191.195 278.727 191.328 278.594 191.469 278.485C191.609 278.36 191.758 278.297 191.914 278.297C192.07 278.297 192.164 278.36 192.195 278.485C192.227 278.61 192.242 278.735 192.242 278.86C192.242 279.204 192.133 279.532 191.914 279.844C191.711 280.141 191.438 280.415 191.094 280.665C190.766 280.899 190.383 281.11 189.945 281.297C189.523 281.485 189.102 281.641 188.68 281.766C188.258 281.891 187.852 281.985 187.461 282.047C187.086 282.11 186.766 282.141 186.5 282.141C185.672 282.141 184.977 282.008 184.414 281.743C183.867 281.461 183.492 280.907 183.289 280.079L183.406 278.461ZM186.758 273.844C186.445 274.125 186.195 274.383 186.008 274.618C185.836 274.836 185.695 275.071 185.586 275.321C185.492 275.555 185.406 275.813 185.328 276.094C185.266 276.375 185.195 276.704 185.117 277.079C185.414 276.844 185.656 276.61 185.844 276.375C186.047 276.141 186.211 275.899 186.336 275.649C186.461 275.399 186.555 275.133 186.617 274.852C186.68 274.555 186.727 274.219 186.758 273.844Z" fill="#F6BCE6"/>
<path d="M175.742 278.579C175.664 278.657 175.516 278.79 175.297 278.977C175.078 279.165 174.844 279.368 174.594 279.586C174.359 279.79 174.133 279.985 173.914 280.172C173.695 280.344 173.539 280.461 173.445 280.524C173.414 280.54 173.32 280.594 173.164 280.688C173.023 280.766 172.859 280.868 172.672 280.993C172.484 281.102 172.289 281.211 172.086 281.321C171.898 281.415 171.75 281.493 171.641 281.555C171.453 281.649 171.32 281.719 171.242 281.766C171.164 281.797 171.047 281.813 170.891 281.813C170.641 281.813 170.375 281.735 170.094 281.579C169.828 281.407 169.695 281.172 169.695 280.875V278.344L170.023 276.633C170.195 275.977 170.391 275.446 170.609 275.04C170.828 274.618 171.102 274.274 171.43 274.008C171.758 273.727 172.148 273.516 172.602 273.375C173.07 273.235 173.617 273.102 174.242 272.977C174.273 272.961 174.375 272.922 174.547 272.86C174.719 272.797 174.82 272.758 174.852 272.743H175.18C175.43 272.743 175.648 272.797 175.836 272.907C176.039 273.016 176.234 273.157 176.422 273.329L177.594 268.313C177.563 268.141 177.563 267.907 177.594 267.61C177.625 267.297 177.68 266.985 177.758 266.672C177.852 266.36 177.969 266.094 178.109 265.875C178.25 265.657 178.414 265.547 178.602 265.547C178.836 265.547 179.016 265.633 179.141 265.805C179.281 265.977 179.328 266.196 179.281 266.461L178.016 274.125C177.734 274.797 177.523 275.469 177.383 276.141C177.258 276.813 177.195 277.508 177.195 278.227C177.195 278.555 177.219 278.883 177.266 279.211C177.313 279.54 177.398 279.836 177.523 280.102C177.664 280.368 177.852 280.586 178.086 280.758C178.32 280.915 178.625 280.993 179 280.993C179.828 280.993 180.648 280.844 181.461 280.547C182.273 280.235 182.992 279.813 183.617 279.282C183.648 279.282 183.672 279.282 183.688 279.282C183.703 279.266 183.727 279.258 183.758 279.258C183.883 279.258 183.992 279.297 184.086 279.375C184.086 279.407 184.086 279.454 184.086 279.516C184.102 279.579 184.109 279.625 184.109 279.657C184.109 279.907 184.008 280.141 183.805 280.36C183.602 280.579 183.336 280.782 183.008 280.969C182.695 281.157 182.344 281.321 181.953 281.461C181.578 281.602 181.195 281.727 180.805 281.836C180.43 281.946 180.078 282.024 179.75 282.071C179.422 282.118 179.164 282.141 178.977 282.141C178.43 282.141 177.969 282.055 177.594 281.883C177.234 281.696 176.93 281.438 176.68 281.11C176.445 280.782 176.266 280.407 176.141 279.985C176.016 279.547 175.922 279.079 175.859 278.579H175.742ZM171.172 277.665C171.172 277.758 171.156 277.915 171.125 278.133C171.109 278.352 171.086 278.594 171.055 278.86C171.039 279.11 171.016 279.352 170.984 279.586C170.969 279.805 170.953 279.969 170.938 280.079C170.938 280.11 170.93 280.188 170.914 280.313C170.914 280.438 170.914 280.516 170.914 280.547C171.133 280.547 171.414 280.461 171.758 280.29C172.102 280.102 172.461 279.868 172.836 279.586C173.211 279.29 173.594 278.961 173.984 278.602C174.375 278.227 174.719 277.86 175.016 277.5C175.328 277.141 175.586 276.79 175.789 276.446C175.992 276.086 176.094 275.782 176.094 275.532C176.094 275.454 176.031 275.344 175.906 275.204C175.797 275.063 175.664 274.93 175.508 274.805C175.367 274.68 175.219 274.571 175.063 274.477C174.922 274.383 174.797 274.336 174.688 274.336C174.359 274.227 173.977 274.258 173.539 274.43C173.117 274.586 172.719 274.836 172.344 275.18C171.969 275.508 171.664 275.891 171.43 276.329C171.195 276.766 171.109 277.211 171.172 277.665Z" fill="#F6BCE6"/>
<path d="M147.922 280.29C147.922 280.274 147.93 280.219 147.945 280.125C147.961 280.032 147.977 279.938 147.992 279.844C148.008 279.735 148.023 279.641 148.039 279.563C148.055 279.469 148.063 279.407 148.063 279.375V279.282V279.141L148.391 277.665C148.656 277.102 148.93 276.563 149.211 276.047C149.508 275.532 149.844 275.079 150.219 274.688C150.594 274.297 151.023 273.985 151.508 273.75C152.008 273.516 152.609 273.399 153.313 273.399C153.453 273.399 153.625 273.446 153.828 273.54C154.047 273.618 154.258 273.719 154.461 273.844C154.68 273.969 154.875 274.102 155.047 274.243C155.234 274.368 155.375 274.485 155.469 274.594C155.953 274.516 156.305 274.477 156.523 274.477C156.742 274.461 156.93 274.454 157.086 274.454C157.242 274.438 157.406 274.407 157.578 274.36C157.766 274.313 158.047 274.211 158.422 274.055C158.688 273.977 158.945 273.938 159.195 273.938C159.305 273.938 159.406 273.985 159.5 274.079C159.609 274.172 159.664 274.282 159.664 274.407C159.664 274.563 159.609 274.704 159.5 274.829C159.391 274.954 159.258 275.032 159.102 275.063L156.172 275.719L155.914 275.836C155.898 276.68 155.711 277.485 155.352 278.25C154.992 279.016 154.516 279.688 153.922 280.266C153.328 280.844 152.641 281.305 151.859 281.649C151.078 281.977 150.266 282.141 149.422 282.141C149.359 282.141 149.258 282.133 149.117 282.118C148.977 282.118 148.883 282.118 148.836 282.118C148.492 281.977 148.25 281.719 148.109 281.344C147.984 280.969 147.922 280.618 147.922 280.29ZM149.422 280.758C149.438 280.836 149.5 280.875 149.609 280.875C149.719 280.875 149.797 280.875 149.844 280.875C150.406 280.875 150.984 280.735 151.578 280.454C152.172 280.157 152.703 279.782 153.172 279.329C153.656 278.86 154.047 278.336 154.344 277.758C154.656 277.165 154.813 276.571 154.813 275.977C154.313 275.977 153.813 275.938 153.313 275.86C152.813 275.766 152.328 275.719 151.859 275.719H151.836L149.891 277.782C149.781 277.891 149.695 278.04 149.633 278.227C149.57 278.415 149.523 278.618 149.492 278.836C149.461 279.055 149.438 279.274 149.422 279.493C149.406 279.711 149.398 279.907 149.398 280.079C149.398 280.125 149.398 280.235 149.398 280.407C149.398 280.579 149.406 280.696 149.422 280.758Z" fill="#F6BCE6"/>
<path d="M136.391 279.329C136.828 279 137.148 278.68 137.352 278.368C137.57 278.055 137.742 277.743 137.867 277.43C137.992 277.118 138.094 276.79 138.172 276.446C138.25 276.086 138.375 275.696 138.547 275.274C138.484 275.165 138.445 275.071 138.43 274.993C138.43 274.899 138.43 274.79 138.43 274.665C138.43 274.54 138.445 274.391 138.477 274.219C138.523 274.047 138.586 273.891 138.664 273.75C138.742 273.594 138.836 273.461 138.945 273.352C139.055 273.243 139.188 273.188 139.344 273.188C139.328 273.25 139.414 273.321 139.602 273.399C139.805 273.477 140.047 273.563 140.328 273.657C140.625 273.75 140.938 273.852 141.266 273.961C141.594 274.071 141.883 274.188 142.133 274.313C142.414 274.469 142.609 274.641 142.719 274.829C142.844 275 142.906 275.25 142.906 275.579C142.906 275.875 142.867 276.211 142.789 276.586C142.727 276.961 142.656 277.344 142.578 277.735C142.516 278.11 142.445 278.493 142.367 278.883C142.305 279.258 142.273 279.602 142.273 279.915V280.524C142.258 280.665 142.289 280.743 142.367 280.758C142.461 280.758 142.547 280.758 142.625 280.758C142.813 280.758 142.984 280.727 143.141 280.665C143.297 280.602 143.453 280.532 143.609 280.454C143.781 280.375 143.945 280.305 144.102 280.243C144.258 280.165 144.422 280.11 144.594 280.079L146.656 278.813C146.719 278.704 146.797 278.618 146.891 278.555C147 278.477 147.102 278.407 147.195 278.344C147.352 278.25 147.539 278.118 147.758 277.946C147.867 277.852 147.984 277.758 148.109 277.665H148.813C148.859 277.665 148.891 277.711 148.906 277.805C148.922 277.899 148.93 277.969 148.93 278.016C148.93 278.204 148.797 278.438 148.531 278.719C148.266 279 147.922 279.29 147.5 279.586C147.078 279.883 146.609 280.18 146.094 280.477C145.578 280.758 145.07 281.016 144.57 281.25C144.086 281.485 143.633 281.672 143.211 281.813C142.805 281.954 142.492 282.024 142.273 282.024C141.992 282.024 141.766 281.954 141.594 281.813C141.422 281.672 141.281 281.5 141.172 281.297C141.063 281.094 140.984 280.875 140.938 280.641C140.906 280.391 140.891 280.149 140.891 279.915C140.891 279.743 140.945 279.5 141.055 279.188C141.164 278.875 141.289 278.555 141.43 278.227C141.57 277.899 141.695 277.579 141.805 277.266C141.914 276.954 141.969 276.704 141.969 276.516C141.969 276.5 141.852 276.438 141.617 276.329C141.398 276.219 141.156 276.102 140.891 275.977C140.625 275.836 140.375 275.719 140.141 275.625C139.922 275.516 139.813 275.454 139.813 275.438C139.469 275.797 139.227 276.18 139.086 276.586C138.961 276.993 138.828 277.415 138.688 277.852C138.563 278.29 138.367 278.727 138.102 279.165C137.852 279.602 137.422 280.032 136.813 280.454C136.797 280.454 136.766 280.446 136.719 280.43C136.656 280.415 136.602 280.375 136.555 280.313C136.492 280.235 136.445 280.125 136.414 279.985C136.383 279.829 136.375 279.61 136.391 279.329Z" fill="#F6BCE6"/>
<path d="M127.039 278.907C127.023 278.907 127 278.93 126.969 278.977C126.953 279.008 126.93 279.032 126.898 279.047C126.711 279.375 126.563 279.696 126.453 280.008C126.344 280.321 126.234 280.68 126.125 281.086C126.016 281.243 125.898 281.344 125.773 281.391C125.664 281.422 125.531 281.438 125.375 281.438C125.016 281.438 124.836 281.282 124.836 280.969C125.008 280.282 125.156 279.727 125.281 279.305C125.406 278.868 125.516 278.5 125.609 278.204C125.703 277.891 125.781 277.618 125.844 277.383C125.922 277.149 126 276.915 126.078 276.68C126.156 276.43 126.234 276.141 126.313 275.813C126.406 275.485 126.508 275.079 126.617 274.594C126.742 274.094 126.883 273.485 127.039 272.766C127.195 272.047 127.383 271.165 127.602 270.118L128.398 268.149C128.461 268.008 128.531 267.922 128.609 267.891C128.703 267.844 128.805 267.821 128.914 267.821C129.055 267.821 129.188 267.868 129.313 267.961C129.438 268.04 129.516 268.157 129.547 268.313C129.547 268.344 129.547 268.407 129.547 268.5C129.547 268.594 129.547 268.696 129.547 268.805C129.563 268.899 129.57 268.993 129.57 269.086C129.57 269.165 129.57 269.227 129.57 269.274C129.57 270.102 129.5 270.813 129.359 271.407C129.234 272 129.055 272.555 128.82 273.071C128.602 273.586 128.352 274.102 128.07 274.618C127.805 275.133 127.539 275.727 127.273 276.399C127.695 275.915 128.18 275.5 128.727 275.157C129.273 274.813 129.875 274.641 130.531 274.641C130.594 274.641 130.711 274.649 130.883 274.665C131.07 274.68 131.195 274.688 131.258 274.688C131.586 274.782 131.867 274.961 132.102 275.227C132.352 275.493 132.547 275.797 132.688 276.141C132.828 276.469 132.93 276.821 132.992 277.196C133.055 277.555 133.086 277.883 133.086 278.18C133.086 278.493 133.055 278.829 132.992 279.188C132.93 279.532 132.852 279.86 132.758 280.172H132.992L136.391 279.282C136.703 279.188 137.016 279.024 137.328 278.79C137.656 278.555 137.922 278.336 138.125 278.133H138.172C138.188 278.133 138.195 278.133 138.195 278.133C138.211 278.118 138.227 278.11 138.242 278.11C138.383 278.11 138.492 278.157 138.57 278.25C138.664 278.329 138.711 278.438 138.711 278.579C138.711 278.86 138.594 279.118 138.359 279.352C138.141 279.586 137.875 279.79 137.563 279.961C137.25 280.118 136.93 280.258 136.602 280.383C136.273 280.493 136.016 280.571 135.828 280.618C135.672 280.665 135.398 280.743 135.008 280.852C134.633 280.946 134.227 281.047 133.789 281.157C133.352 281.266 132.93 281.368 132.523 281.461C132.133 281.555 131.867 281.618 131.727 281.649C131.492 281.774 131.273 281.891 131.07 282C130.867 282.094 130.641 282.141 130.391 282.141C130.031 282.141 129.633 282.055 129.195 281.883C128.773 281.696 128.383 281.461 128.023 281.18C127.68 280.883 127.398 280.54 127.18 280.149C126.977 279.758 126.93 279.344 127.039 278.907ZM127.602 278.555C127.836 278.555 128.023 278.657 128.164 278.86C128.32 279.047 128.492 279.258 128.68 279.493C128.867 279.727 129.102 279.938 129.383 280.125C129.68 280.313 130.102 280.407 130.648 280.407H131.141C131.281 280.266 131.391 280.086 131.469 279.868C131.563 279.649 131.625 279.43 131.656 279.211C131.703 278.977 131.727 278.743 131.727 278.508C131.727 278.274 131.727 278.055 131.727 277.852C131.727 277.633 131.703 277.407 131.656 277.172C131.609 276.922 131.531 276.696 131.422 276.493C131.313 276.29 131.156 276.125 130.953 276C130.766 275.875 130.539 275.813 130.273 275.813C129.961 275.813 129.633 275.915 129.289 276.118C128.961 276.305 128.656 276.547 128.375 276.844C128.094 277.141 127.844 277.454 127.625 277.782C127.406 278.11 127.25 278.407 127.156 278.672C127.234 278.61 127.305 278.579 127.367 278.579C127.445 278.563 127.523 278.555 127.602 278.555Z" fill="#F6BCE6"/>
<path d="M109.016 281.555C109.063 281.165 109.125 280.797 109.203 280.454C109.281 280.094 109.367 279.743 109.461 279.399C109.555 279.055 109.656 278.704 109.766 278.344C109.891 277.969 110.023 277.547 110.164 277.079V276.961C109.539 277.321 109.094 277.5 108.828 277.5C108.578 277.5 108.453 277.407 108.453 277.219C108.437 277.032 108.516 276.782 108.688 276.469C108.875 276.157 109.094 275.868 109.344 275.602C109.609 275.336 109.875 275.125 110.141 274.969C110.422 274.813 110.641 274.79 110.797 274.899C110.984 274.899 111.133 274.93 111.242 274.993C111.367 275.055 111.5 275.149 111.641 275.274C112 274.993 112.336 274.766 112.648 274.594C112.961 274.422 113.336 274.336 113.773 274.336C114.461 274.336 114.977 274.493 115.32 274.805C115.68 275.118 115.938 275.618 116.094 276.305C116.359 276.04 116.602 275.797 116.82 275.579C117.039 275.344 117.273 275.149 117.523 274.993C117.789 274.821 118.07 274.696 118.367 274.618C118.664 274.524 119 274.477 119.375 274.477C119.688 274.477 119.992 274.594 120.289 274.829C120.586 275.063 120.797 275.321 120.922 275.602C120.922 275.665 120.922 275.805 120.922 276.024C120.922 276.243 120.922 276.391 120.922 276.469C120.922 277 120.859 277.516 120.734 278.016C120.609 278.5 120.547 279 120.547 279.516C120.547 279.735 120.57 279.961 120.617 280.196C120.68 280.415 120.852 280.524 121.133 280.524C121.508 280.524 121.844 280.446 122.141 280.29C122.453 280.133 122.734 279.946 122.984 279.727C123.25 279.493 123.484 279.243 123.688 278.977C123.906 278.711 124.102 278.469 124.273 278.25C124.461 278.016 124.633 277.821 124.789 277.665C124.945 277.508 125.102 277.43 125.258 277.43C125.367 277.43 125.484 277.477 125.609 277.571C125.75 277.649 125.82 277.75 125.82 277.875C125.82 277.891 125.813 277.915 125.797 277.946C125.797 277.977 125.797 278 125.797 278.016C125.641 278.5 125.414 278.961 125.117 279.399C124.82 279.836 124.477 280.227 124.086 280.571C123.695 280.899 123.258 281.165 122.773 281.368C122.305 281.555 121.805 281.649 121.273 281.649C120.773 281.649 120.352 281.586 120.008 281.461C119.664 281.321 119.398 281.008 119.211 280.524C119.211 280.477 119.203 280.375 119.188 280.219C119.188 280.047 119.188 279.946 119.188 279.915C119.188 279.321 119.242 278.75 119.352 278.204C119.477 277.657 119.539 277.102 119.539 276.54C119.539 276.493 119.531 276.391 119.516 276.235C119.516 276.079 119.516 275.977 119.516 275.93C119.453 275.852 119.352 275.813 119.211 275.813C119.086 275.813 118.969 275.813 118.859 275.813C118.531 275.813 118.219 275.93 117.922 276.165C117.625 276.399 117.352 276.696 117.102 277.055C116.852 277.415 116.625 277.821 116.422 278.274C116.234 278.711 116.07 279.157 115.93 279.61C115.789 280.047 115.672 280.461 115.578 280.852C115.5 281.227 115.453 281.54 115.438 281.79L115.18 282.024H114.383C114.242 282.024 114.164 281.954 114.148 281.813C114.148 281.657 114.148 281.54 114.148 281.461C114.148 281.086 114.172 280.711 114.219 280.336C114.281 279.946 114.344 279.563 114.406 279.188C114.484 278.797 114.555 278.407 114.617 278.016C114.68 277.625 114.719 277.243 114.734 276.868C114.719 276.743 114.703 276.61 114.688 276.469C114.672 276.313 114.641 276.172 114.594 276.047C114.547 275.922 114.477 275.821 114.383 275.743C114.289 275.649 114.156 275.602 113.984 275.602C113.734 275.602 113.492 275.649 113.258 275.743C113.023 275.836 112.805 275.961 112.602 276.118C112.414 276.258 112.242 276.438 112.086 276.657C111.945 276.86 111.844 277.086 111.781 277.336L110.375 281.883L110.164 282.118C110.164 282.118 110.117 282.118 110.023 282.118C109.93 282.133 109.859 282.141 109.813 282.141C109.641 282.141 109.461 282.125 109.273 282.094C109.102 282.047 109.016 281.899 109.016 281.649V281.555Z" fill="#F6BCE6"/>
<path d="M100.273 278.461C100.305 278.368 100.352 278.204 100.414 277.969C100.492 277.719 100.563 277.454 100.625 277.172C100.703 276.891 100.766 276.625 100.813 276.375C100.875 276.11 100.922 275.93 100.953 275.836C101.047 275.461 101.156 275.055 101.281 274.618C101.422 274.18 101.609 273.774 101.844 273.399C102.078 273.024 102.375 272.719 102.734 272.485C103.109 272.235 103.57 272.11 104.117 272.11C104.32 272.11 104.461 272.188 104.539 272.344C104.633 272.485 104.711 272.641 104.773 272.813C104.773 272.875 104.773 272.993 104.773 273.165C104.789 273.321 104.797 273.43 104.797 273.493C104.797 274.165 104.727 274.758 104.586 275.274C104.461 275.79 104.258 276.266 103.977 276.704C103.711 277.141 103.383 277.555 102.992 277.946C102.602 278.321 102.156 278.719 101.656 279.141C101.641 279.188 101.617 279.266 101.586 279.375C101.555 279.485 101.539 279.563 101.539 279.61V279.657C101.539 279.938 101.586 280.165 101.68 280.336C101.773 280.508 101.898 280.649 102.055 280.758C102.227 280.852 102.414 280.915 102.617 280.946C102.836 280.961 103.07 280.969 103.32 280.969C104.055 280.969 104.758 280.868 105.43 280.665C106.102 280.461 106.719 280.133 107.281 279.68C107.359 279.602 107.453 279.493 107.563 279.352C107.688 279.196 107.813 279.04 107.938 278.883C108.063 278.727 108.195 278.594 108.336 278.485C108.477 278.36 108.625 278.297 108.781 278.297C108.938 278.297 109.031 278.36 109.063 278.485C109.094 278.61 109.109 278.735 109.109 278.86C109.109 279.204 109 279.532 108.781 279.844C108.578 280.141 108.305 280.415 107.961 280.665C107.633 280.899 107.25 281.11 106.813 281.297C106.391 281.485 105.969 281.641 105.547 281.766C105.125 281.891 104.719 281.985 104.328 282.047C103.953 282.11 103.633 282.141 103.367 282.141C102.539 282.141 101.844 282.008 101.281 281.743C100.734 281.461 100.359 280.907 100.156 280.079L100.273 278.461ZM103.625 273.844C103.313 274.125 103.063 274.383 102.875 274.618C102.703 274.836 102.563 275.071 102.453 275.321C102.359 275.555 102.273 275.813 102.195 276.094C102.133 276.375 102.063 276.704 101.984 277.079C102.281 276.844 102.523 276.61 102.711 276.375C102.914 276.141 103.078 275.899 103.203 275.649C103.328 275.399 103.422 275.133 103.484 274.852C103.547 274.555 103.594 274.219 103.625 273.844Z" fill="#F6BCE6"/>
<path d="M87.8047 293.086C87.7891 293.024 87.7734 292.907 87.7578 292.735C87.7578 292.579 87.7578 292.461 87.7578 292.383C87.7578 292.008 87.7969 291.618 87.875 291.211C87.9688 290.821 88.0859 290.422 88.2266 290.016C88.3828 289.625 88.5469 289.243 88.7188 288.868C88.9063 288.508 89.1016 288.157 89.3047 287.813C89.6641 287.188 90.0234 286.586 90.3828 286.008C90.7422 285.43 91.1172 284.868 91.5078 284.321C91.9141 283.774 92.3359 283.243 92.7734 282.727C93.2109 282.211 93.6875 281.696 94.2031 281.18C94.2031 281.165 94.2031 281.118 94.2031 281.04C94.2188 280.961 94.2266 280.907 94.2266 280.875C94.2266 280.672 94.2031 280.438 94.1563 280.172C94.125 279.907 94.0625 279.657 93.9688 279.422C93.8906 279.188 93.7656 278.985 93.5938 278.813C93.4219 278.641 93.2109 278.555 92.9609 278.555C92.5859 278.555 92.25 278.61 91.9531 278.719C91.6719 278.813 91.4063 278.954 91.1563 279.141C90.9063 279.329 90.6641 279.54 90.4297 279.774C90.2109 280.008 89.9844 280.258 89.75 280.524C89.6406 280.571 89.5391 280.602 89.4453 280.618C89.3672 280.618 89.2734 280.618 89.1641 280.618C88.9766 280.618 88.8516 280.563 88.7891 280.454C88.7422 280.344 88.7188 280.204 88.7188 280.032V279.821L90.8984 275.391C90.9922 275.188 91.0469 274.977 91.0625 274.758C91.0938 274.54 91.1094 274.329 91.1094 274.125C90.8906 274.125 90.6328 274.172 90.3359 274.266C90.0547 274.344 89.8594 274.485 89.75 274.688L86.2109 277.547C86.1016 277.579 85.9922 277.633 85.8828 277.711C85.7891 277.774 85.6953 277.844 85.6016 277.922C85.5234 278 85.4375 278.071 85.3438 278.133C85.25 278.196 85.1484 278.227 85.0391 278.227C84.9297 278.227 84.8438 278.188 84.7813 278.11C84.7188 278.032 84.6875 277.938 84.6875 277.829C84.6875 277.61 84.75 277.336 84.875 277.008C85.0156 276.68 85.1953 276.446 85.4141 276.305C85.5391 276.196 85.7656 276.024 86.0938 275.79C86.4375 275.54 86.7969 275.282 87.1719 275.016C87.5469 274.75 87.8984 274.5 88.2266 274.266C88.5703 274.016 88.8125 273.852 88.9531 273.774C89.2656 273.555 89.6484 273.329 90.1016 273.094C90.5703 272.86 91.0234 272.743 91.4609 272.743C91.7891 272.743 92.0391 272.883 92.2109 273.165C92.3984 273.446 92.4922 273.735 92.4922 274.032C92.4922 274.641 92.375 275.227 92.1406 275.79C91.9219 276.352 91.6953 276.899 91.4609 277.43H91.5313H91.5547C91.6016 277.43 91.6875 277.422 91.8125 277.407C91.9531 277.375 92.1016 277.352 92.2578 277.336C92.4297 277.305 92.5781 277.274 92.7031 277.243C92.8438 277.211 92.9297 277.196 92.9609 277.196H93.0547C93.4609 277.196 93.7969 277.282 94.0625 277.454C94.3438 277.61 94.5781 277.813 94.7656 278.063C94.9688 278.313 95.125 278.61 95.2344 278.954C95.3594 279.282 95.4766 279.61 95.5859 279.938C96.0078 279.579 96.3516 279.29 96.6172 279.071C96.8828 278.852 97.1016 278.68 97.2734 278.555C97.4609 278.415 97.625 278.297 97.7656 278.204C97.9063 278.094 98.0703 277.985 98.2578 277.875C98.4609 277.75 98.7031 277.594 98.9844 277.407C99.2656 277.204 99.6328 276.93 100.086 276.586C100.195 276.524 100.336 276.454 100.508 276.375C100.68 276.282 100.852 276.235 101.023 276.235C101.133 276.235 101.227 276.305 101.305 276.446C101.398 276.586 101.445 276.711 101.445 276.821C101.445 276.993 101.375 277.149 101.234 277.29L98.4922 279.235L95.7969 281.415L95.7031 281.649C95.6875 281.821 95.6641 282.133 95.6328 282.586C95.6016 283.04 95.5625 283.516 95.5156 284.016C95.4844 284.516 95.4453 284.985 95.3984 285.422C95.3672 285.86 95.3438 286.172 95.3281 286.36C95.2969 286.844 95.1953 287.368 95.0234 287.93C94.8672 288.493 94.6641 289.055 94.4141 289.618C94.1641 290.18 93.8594 290.727 93.5 291.258C93.1563 291.79 92.7656 292.258 92.3281 292.665C91.9063 293.071 91.4375 293.399 90.9219 293.649C90.4063 293.899 89.8594 294.024 89.2813 294.024C88.9375 294.024 88.6328 293.954 88.3672 293.813C88.1016 293.688 87.9141 293.446 87.8047 293.086ZM93.5 283.829C93.4219 283.938 93.2891 284.11 93.1016 284.344C92.9297 284.579 92.75 284.813 92.5625 285.047C92.3906 285.282 92.2266 285.5 92.0703 285.704C91.9297 285.922 91.8359 286.055 91.7891 286.102C91.4766 286.633 91.1484 287.165 90.8047 287.696C90.4766 288.227 90.1797 288.774 89.9141 289.336C89.6484 289.899 89.4297 290.469 89.2578 291.047C89.0859 291.641 89 292.258 89 292.899C89.75 292.899 90.3828 292.649 90.8984 292.149C92.1328 291.008 92.9922 289.727 93.4766 288.305C93.9766 286.883 94.2266 285.321 94.2266 283.618C94.2266 283.571 94.2188 283.485 94.2031 283.36C94.2031 283.25 94.2031 283.172 94.2031 283.125L93.5 283.829Z" fill="#F6BCE6"/>
<path d="M75.9688 278.461C76 278.368 76.0469 278.204 76.1094 277.969C76.1875 277.719 76.2578 277.454 76.3203 277.172C76.3984 276.891 76.4609 276.625 76.5078 276.375C76.5703 276.11 76.6172 275.93 76.6484 275.836C76.7422 275.461 76.8516 275.055 76.9766 274.618C77.1172 274.18 77.3047 273.774 77.5391 273.399C77.7734 273.024 78.0703 272.719 78.4297 272.485C78.8047 272.235 79.2656 272.11 79.8125 272.11C80.0156 272.11 80.1563 272.188 80.2344 272.344C80.3281 272.485 80.4063 272.641 80.4688 272.813C80.4688 272.875 80.4688 272.993 80.4688 273.165C80.4844 273.321 80.4922 273.43 80.4922 273.493C80.4922 274.165 80.4219 274.758 80.2813 275.274C80.1563 275.79 79.9531 276.266 79.6719 276.704C79.4063 277.141 79.0781 277.555 78.6875 277.946C78.2969 278.321 77.8516 278.719 77.3516 279.141C77.3359 279.188 77.3125 279.266 77.2813 279.375C77.25 279.485 77.2344 279.563 77.2344 279.61V279.657C77.2344 279.938 77.2813 280.165 77.375 280.336C77.4688 280.508 77.5938 280.649 77.75 280.758C77.9219 280.852 78.1094 280.915 78.3125 280.946C78.5313 280.961 78.7656 280.969 79.0156 280.969C79.75 280.969 80.4531 280.868 81.125 280.665C81.7969 280.461 82.4141 280.133 82.9766 279.68C83.0547 279.602 83.1484 279.493 83.2578 279.352C83.3828 279.196 83.5078 279.04 83.6328 278.883C83.7578 278.727 83.8906 278.594 84.0313 278.485C84.1719 278.36 84.3203 278.297 84.4766 278.297C84.6328 278.297 84.7266 278.36 84.7578 278.485C84.7891 278.61 84.8047 278.735 84.8047 278.86C84.8047 279.204 84.6953 279.532 84.4766 279.844C84.2734 280.141 84 280.415 83.6563 280.665C83.3281 280.899 82.9453 281.11 82.5078 281.297C82.0859 281.485 81.6641 281.641 81.2422 281.766C80.8203 281.891 80.4141 281.985 80.0234 282.047C79.6484 282.11 79.3281 282.141 79.0625 282.141C78.2344 282.141 77.5391 282.008 76.9766 281.743C76.4297 281.461 76.0547 280.907 75.8516 280.079L75.9688 278.461ZM79.3203 273.844C79.0078 274.125 78.7578 274.383 78.5703 274.618C78.3984 274.836 78.2578 275.071 78.1484 275.321C78.0547 275.555 77.9688 275.813 77.8906 276.094C77.8281 276.375 77.7578 276.704 77.6797 277.079C77.9766 276.844 78.2188 276.61 78.4063 276.375C78.6094 276.141 78.7734 275.899 78.8984 275.649C79.0234 275.399 79.1172 275.133 79.1797 274.852C79.2422 274.555 79.2891 274.219 79.3203 273.844Z" fill="#F6BCE6"/>
<path d="M68.3047 278.579C68.2266 278.657 68.0781 278.79 67.8594 278.977C67.6406 279.165 67.4063 279.368 67.1563 279.586C66.9219 279.79 66.6953 279.985 66.4766 280.172C66.2578 280.344 66.1016 280.461 66.0078 280.524C65.9766 280.54 65.8828 280.594 65.7266 280.688C65.5859 280.766 65.4219 280.868 65.2344 280.993C65.0469 281.102 64.8516 281.211 64.6484 281.321C64.4609 281.415 64.3125 281.493 64.2031 281.555C64.0156 281.649 63.8828 281.719 63.8047 281.766C63.7266 281.797 63.6094 281.813 63.4531 281.813C63.2031 281.813 62.9375 281.735 62.6563 281.579C62.3906 281.407 62.2578 281.172 62.2578 280.875V278.344L62.5859 276.633C62.7578 275.977 62.9531 275.446 63.1719 275.04C63.3906 274.618 63.6641 274.274 63.9922 274.008C64.3203 273.727 64.7109 273.516 65.1641 273.375C65.6328 273.235 66.1797 273.102 66.8047 272.977C66.8359 272.961 66.9375 272.922 67.1094 272.86C67.2813 272.797 67.3828 272.758 67.4141 272.743H67.7422C67.9922 272.743 68.2109 272.797 68.3984 272.907C68.6016 273.016 68.7969 273.157 68.9844 273.329L70.1563 268.313C70.125 268.141 70.125 267.907 70.1563 267.61C70.1875 267.297 70.2422 266.985 70.3203 266.672C70.4141 266.36 70.5313 266.094 70.6719 265.875C70.8125 265.657 70.9766 265.547 71.1641 265.547C71.3984 265.547 71.5781 265.633 71.7031 265.805C71.8438 265.977 71.8906 266.196 71.8438 266.461L70.5781 274.125C70.2969 274.797 70.0859 275.469 69.9453 276.141C69.8203 276.813 69.7578 277.508 69.7578 278.227C69.7578 278.555 69.7813 278.883 69.8281 279.211C69.875 279.54 69.9609 279.836 70.0859 280.102C70.2266 280.368 70.4141 280.586 70.6484 280.758C70.8828 280.915 71.1875 280.993 71.5625 280.993C72.3906 280.993 73.2109 280.844 74.0234 280.547C74.8359 280.235 75.5547 279.813 76.1797 279.282C76.2109 279.282 76.2344 279.282 76.25 279.282C76.2656 279.266 76.2891 279.258 76.3203 279.258C76.4453 279.258 76.5547 279.297 76.6484 279.375C76.6484 279.407 76.6484 279.454 76.6484 279.516C76.6641 279.579 76.6719 279.625 76.6719 279.657C76.6719 279.907 76.5703 280.141 76.3672 280.36C76.1641 280.579 75.8984 280.782 75.5703 280.969C75.2578 281.157 74.9063 281.321 74.5156 281.461C74.1406 281.602 73.7578 281.727 73.3672 281.836C72.9922 281.946 72.6406 282.024 72.3125 282.071C71.9844 282.118 71.7266 282.141 71.5391 282.141C70.9922 282.141 70.5313 282.055 70.1563 281.883C69.7969 281.696 69.4922 281.438 69.2422 281.11C69.0078 280.782 68.8281 280.407 68.7031 279.985C68.5781 279.547 68.4844 279.079 68.4219 278.579H68.3047ZM63.7344 277.665C63.7344 277.758 63.7188 277.915 63.6875 278.133C63.6719 278.352 63.6484 278.594 63.6172 278.86C63.6016 279.11 63.5781 279.352 63.5469 279.586C63.5313 279.805 63.5156 279.969 63.5 280.079C63.5 280.11 63.4922 280.188 63.4766 280.313C63.4766 280.438 63.4766 280.516 63.4766 280.547C63.6953 280.547 63.9766 280.461 64.3203 280.29C64.6641 280.102 65.0234 279.868 65.3984 279.586C65.7734 279.29 66.1563 278.961 66.5469 278.602C66.9375 278.227 67.2813 277.86 67.5781 277.5C67.8906 277.141 68.1484 276.79 68.3516 276.446C68.5547 276.086 68.6563 275.782 68.6563 275.532C68.6563 275.454 68.5938 275.344 68.4688 275.204C68.3594 275.063 68.2266 274.93 68.0703 274.805C67.9297 274.68 67.7813 274.571 67.625 274.477C67.4844 274.383 67.3594 274.336 67.25 274.336C66.9219 274.227 66.5391 274.258 66.1016 274.43C65.6797 274.586 65.2813 274.836 64.9063 275.18C64.5313 275.508 64.2266 275.891 63.9922 276.329C63.7578 276.766 63.6719 277.211 63.7344 277.665Z" fill="#F6BCE6"/>
<path d="M43.1563 278.461C43.1875 278.368 43.2344 278.204 43.2969 277.969C43.375 277.719 43.4453 277.454 43.5078 277.172C43.5859 276.891 43.6484 276.625 43.6953 276.375C43.7578 276.11 43.8047 275.93 43.8359 275.836C43.9297 275.461 44.0391 275.055 44.1641 274.618C44.3047 274.18 44.4922 273.774 44.7266 273.399C44.9609 273.024 45.2578 272.719 45.6172 272.485C45.9922 272.235 46.4531 272.11 47 272.11C47.2031 272.11 47.3438 272.188 47.4219 272.344C47.5156 272.485 47.5938 272.641 47.6563 272.813C47.6563 272.875 47.6563 272.993 47.6563 273.165C47.6719 273.321 47.6797 273.43 47.6797 273.493C47.6797 274.165 47.6094 274.758 47.4688 275.274C47.3438 275.79 47.1406 276.266 46.8594 276.704C46.5938 277.141 46.2656 277.555 45.875 277.946C45.4844 278.321 45.0391 278.719 44.5391 279.141C44.5234 279.188 44.5 279.266 44.4688 279.375C44.4375 279.485 44.4219 279.563 44.4219 279.61V279.657C44.4219 279.938 44.4688 280.165 44.5625 280.336C44.6563 280.508 44.7813 280.649 44.9375 280.758C45.1094 280.852 45.2969 280.915 45.5 280.946C45.7188 280.961 45.9531 280.969 46.2031 280.969C46.9375 280.969 47.6406 280.868 48.3125 280.665C48.9844 280.461 49.6016 280.133 50.1641 279.68C50.2422 279.602 50.3359 279.493 50.4453 279.352C50.5703 279.196 50.6953 279.04 50.8203 278.883C50.9453 278.727 51.0781 278.594 51.2188 278.485C51.3594 278.36 51.5078 278.297 51.6641 278.297C51.8203 278.297 51.9141 278.36 51.9453 278.485C51.9766 278.61 51.9922 278.735 51.9922 278.86C51.9922 279.204 51.8828 279.532 51.6641 279.844C51.4609 280.141 51.1875 280.415 50.8438 280.665C50.5156 280.899 50.1328 281.11 49.6953 281.297C49.2734 281.485 48.8516 281.641 48.4297 281.766C48.0078 281.891 47.6016 281.985 47.2109 282.047C46.8359 282.11 46.5156 282.141 46.25 282.141C45.4219 282.141 44.7266 282.008 44.1641 281.743C43.6172 281.461 43.2422 280.907 43.0391 280.079L43.1563 278.461ZM46.5078 273.844C46.1953 274.125 45.9453 274.383 45.7578 274.618C45.5859 274.836 45.4453 275.071 45.3359 275.321C45.2422 275.555 45.1563 275.813 45.0781 276.094C45.0156 276.375 44.9453 276.704 44.8672 277.079C45.1641 276.844 45.4063 276.61 45.5938 276.375C45.7969 276.141 45.9609 275.899 46.0859 275.649C46.2109 275.399 46.3047 275.133 46.3672 274.852C46.4297 274.555 46.4766 274.219 46.5078 273.844Z" fill="#F6BCE6"/>
<path d="M35.4922 278.579C35.4141 278.657 35.2656 278.79 35.0469 278.977C34.8281 279.165 34.5938 279.368 34.3438 279.586C34.1094 279.79 33.8828 279.985 33.6641 280.172C33.4453 280.344 33.2891 280.461 33.1953 280.524C33.1641 280.54 33.0703 280.594 32.9141 280.688C32.7734 280.766 32.6094 280.868 32.4219 280.993C32.2344 281.102 32.0391 281.211 31.8359 281.321C31.6484 281.415 31.5 281.493 31.3906 281.555C31.2031 281.649 31.0703 281.719 30.9922 281.766C30.9141 281.797 30.7969 281.813 30.6406 281.813C30.3906 281.813 30.125 281.735 29.8438 281.579C29.5781 281.407 29.4453 281.172 29.4453 280.875V278.344L29.7734 276.633C29.9453 275.977 30.1406 275.446 30.3594 275.04C30.5781 274.618 30.8516 274.274 31.1797 274.008C31.5078 273.727 31.8984 273.516 32.3516 273.375C32.8203 273.235 33.3672 273.102 33.9922 272.977C34.0234 272.961 34.125 272.922 34.2969 272.86C34.4688 272.797 34.5703 272.758 34.6016 272.743H34.9297C35.1797 272.743 35.3984 272.797 35.5859 272.907C35.7891 273.016 35.9844 273.157 36.1719 273.329L37.3438 268.313C37.3125 268.141 37.3125 267.907 37.3438 267.61C37.375 267.297 37.4297 266.985 37.5078 266.672C37.6016 266.36 37.7188 266.094 37.8594 265.875C38 265.657 38.1641 265.547 38.3516 265.547C38.5859 265.547 38.7656 265.633 38.8906 265.805C39.0313 265.977 39.0781 266.196 39.0313 266.461L37.7656 274.125C37.4844 274.797 37.2734 275.469 37.1328 276.141C37.0078 276.813 36.9453 277.508 36.9453 278.227C36.9453 278.555 36.9688 278.883 37.0156 279.211C37.0625 279.54 37.1484 279.836 37.2734 280.102C37.4141 280.368 37.6016 280.586 37.8359 280.758C38.0703 280.915 38.375 280.993 38.75 280.993C39.5781 280.993 40.3984 280.844 41.2109 280.547C42.0234 280.235 42.7422 279.813 43.3672 279.282C43.3984 279.282 43.4219 279.282 43.4375 279.282C43.4531 279.266 43.4766 279.258 43.5078 279.258C43.6328 279.258 43.7422 279.297 43.8359 279.375C43.8359 279.407 43.8359 279.454 43.8359 279.516C43.8516 279.579 43.8594 279.625 43.8594 279.657C43.8594 279.907 43.7578 280.141 43.5547 280.36C43.3516 280.579 43.0859 280.782 42.7578 280.969C42.4453 281.157 42.0938 281.321 41.7031 281.461C41.3281 281.602 40.9453 281.727 40.5547 281.836C40.1797 281.946 39.8281 282.024 39.5 282.071C39.1719 282.118 38.9141 282.141 38.7266 282.141C38.1797 282.141 37.7188 282.055 37.3438 281.883C36.9844 281.696 36.6797 281.438 36.4297 281.11C36.1953 280.782 36.0156 280.407 35.8906 279.985C35.7656 279.547 35.6719 279.079 35.6094 278.579H35.4922ZM30.9219 277.665C30.9219 277.758 30.9063 277.915 30.875 278.133C30.8594 278.352 30.8359 278.594 30.8047 278.86C30.7891 279.11 30.7656 279.352 30.7344 279.586C30.7188 279.805 30.7031 279.969 30.6875 280.079C30.6875 280.11 30.6797 280.188 30.6641 280.313C30.6641 280.438 30.6641 280.516 30.6641 280.547C30.8828 280.547 31.1641 280.461 31.5078 280.29C31.8516 280.102 32.2109 279.868 32.5859 279.586C32.9609 279.29 33.3438 278.961 33.7344 278.602C34.125 278.227 34.4688 277.86 34.7656 277.5C35.0781 277.141 35.3359 276.79 35.5391 276.446C35.7422 276.086 35.8438 275.782 35.8438 275.532C35.8438 275.454 35.7813 275.344 35.6563 275.204C35.5469 275.063 35.4141 274.93 35.2578 274.805C35.1172 274.68 34.9688 274.571 34.8125 274.477C34.6719 274.383 34.5469 274.336 34.4375 274.336C34.1094 274.227 33.7266 274.258 33.2891 274.43C32.8672 274.586 32.4688 274.836 32.0938 275.18C31.7188 275.508 31.4141 275.891 31.1797 276.329C30.9453 276.766 30.8594 277.211 30.9219 277.665Z" fill="#F6BCE6"/>
<path d="M8.89062 281.415C8.89062 281.399 8.89844 281.36 8.91406 281.297C8.92969 281.219 8.9375 281.172 8.9375 281.157L14.7734 269.836C15.0234 269.383 15.1875 268.977 15.2656 268.618C15.3438 268.243 15.3828 267.829 15.3828 267.375C15.3828 267.141 15.375 266.93 15.3594 266.743C15.3438 266.555 15.2813 266.36 15.1719 266.157C15.125 266.157 15.0391 266.157 14.9141 266.157C14.7891 266.141 14.7109 266.133 14.6797 266.133C14.1484 266.133 13.6484 266.227 13.1797 266.415C12.7266 266.602 12.2969 266.852 11.8906 267.165C11.5 267.461 11.125 267.797 10.7656 268.172C10.4063 268.547 10.0547 268.915 9.71094 269.274C9.57031 269.227 9.42969 269.165 9.28906 269.086C9.16406 268.993 9.10156 268.86 9.10156 268.688C9.10156 268.391 9.20313 268.102 9.40625 267.821C9.60938 267.54 9.85938 267.274 10.1563 267.024C10.4688 266.758 10.8203 266.524 11.2109 266.321C11.6016 266.102 11.9766 265.907 12.3359 265.735C12.7109 265.547 13.0625 265.399 13.3906 265.29C13.7188 265.165 13.9766 265.063 14.1641 264.985C14.2109 264.985 14.2656 264.985 14.3281 264.985C14.4063 264.969 14.4844 264.961 14.5625 264.961C14.6563 264.961 14.7344 264.961 14.7969 264.961C14.875 264.946 14.9297 264.938 14.9609 264.938C15.2109 264.938 15.4531 264.954 15.6875 264.985C15.9375 265 16.1484 265.125 16.3203 265.36C16.3516 265.438 16.3828 265.563 16.4141 265.735C16.4609 265.907 16.5078 266.086 16.5547 266.274C16.6016 266.446 16.6328 266.618 16.6484 266.79C16.6797 266.961 16.6953 267.071 16.6953 267.118C16.6953 267.211 16.6797 267.36 16.6484 267.563C16.6328 267.75 16.6016 267.946 16.5547 268.149C16.5078 268.352 16.4609 268.547 16.4141 268.735C16.3828 268.907 16.3516 269.024 16.3203 269.086L13.7891 274.547C13.7578 274.579 13.6953 274.672 13.6016 274.829C13.5078 274.969 13.4453 275.063 13.4141 275.11C13.2734 275.36 13.1094 275.665 12.9219 276.024C12.75 276.383 12.5547 276.758 12.3359 277.149C12.1328 277.54 11.9297 277.922 11.7266 278.297C11.5391 278.672 11.3672 279.016 11.2109 279.329C11.0547 279.625 10.9297 279.875 10.8359 280.079C10.7422 280.266 10.6953 280.36 10.6953 280.36V280.547C11.2578 280.547 11.8594 280.524 12.5 280.477C13.1406 280.43 13.7813 280.36 14.4219 280.266C15.0781 280.157 15.7188 280 16.3438 279.797C16.9688 279.594 17.5469 279.336 18.0781 279.024C18.0938 279.055 18.1016 279.11 18.1016 279.188C18.1172 279.25 18.125 279.282 18.125 279.282C18.125 279.579 17.9844 279.836 17.7031 280.055C17.4375 280.258 17.1172 280.438 16.7422 280.594C16.3672 280.735 15.9922 280.852 15.6172 280.946C15.2422 281.04 14.9609 281.11 14.7734 281.157C14.5859 281.188 14.2578 281.258 13.7891 281.368C13.3359 281.461 12.8516 281.563 12.3359 281.672C11.8359 281.766 11.3516 281.86 10.8828 281.954C10.4141 282.032 10.0938 282.086 9.92188 282.118C9.89063 282.118 9.83594 282.118 9.75781 282.118C9.67969 282.133 9.63281 282.141 9.61719 282.141C9.39844 282.141 9.21875 282.079 9.07813 281.954C8.95313 281.829 8.89062 281.649 8.89062 281.415Z" fill="#F6BCE6"/>
<path d="M7.97656 264.68C8.08594 264.712 8.17969 264.743 8.25781 264.774C8.35156 264.805 8.4375 264.876 8.51563 264.985C8.4375 265.798 8.36719 266.501 8.30469 267.094C8.24219 267.688 8.17188 268.251 8.09375 268.782C8.03125 269.313 7.96094 269.86 7.88281 270.423C7.80469 270.969 7.71094 271.602 7.60156 272.321C7.57031 272.462 7.53125 272.665 7.48438 272.93C7.4375 273.196 7.39063 273.462 7.34375 273.727C7.29688 273.993 7.25781 274.235 7.22656 274.454C7.19531 274.657 7.17969 274.782 7.17969 274.829C7.13281 275.032 7.05469 275.407 6.94531 275.954C6.85156 276.485 6.74219 277.063 6.61719 277.688C6.50781 278.298 6.39844 278.876 6.28906 279.423C6.17969 279.954 6.10156 280.329 6.05469 280.548C6.03906 280.594 6.00781 280.68 5.96094 280.805C5.91406 280.93 5.85938 281.063 5.79688 281.204C5.73438 281.329 5.67188 281.462 5.60938 281.602C5.54688 281.727 5.5 281.805 5.46875 281.837C5.4375 281.852 5.39844 281.883 5.35156 281.93C5.30469 281.977 5.26563 282.008 5.23438 282.024L5.14063 282.001H5.09375C5.07813 282.001 5.0625 281.993 5.04688 281.977C5 281.946 4.92969 281.907 4.83594 281.86C4.75781 281.798 4.71875 281.758 4.71875 281.743L7.29688 265.173C7.32813 265.032 7.41406 264.907 7.55469 264.798C7.71094 264.688 7.85156 264.649 7.97656 264.68Z" fill="#F6BCE6"/>
</svg>
